<?xml version="1.0" encoding="UTF-8" standalone="no"?>
<svg
   width="40.639999mm"
   height="128.5mm"
   viewBox="0 0 40.640002 128.5"
   version="1.1"
   xml:space="preserve"
   style="clip-rule:evenodd;fill-rule:evenodd;stroke-linejoin:round;stroke-miterlimit:1.5"
   id="svg1639"
   sodipodi:docname="chilly_cheese.svg"
   inkscape:version="1.2-dev (1a8d1584, 2021-09-20)"
   inkscape:export-filename="C:\msys64\Rack-SDK\Allieway_Audio\res\hot_spaghetti.png"
   inkscape:export-xdpi="999.98914"
   inkscape:export-ydpi="999.98914"
   xmlns:inkscape="http://www.inkscape.org/namespaces/inkscape"
   xmlns:sodipodi="http://sodipodi.sourceforge.net/DTD/sodipodi-0.dtd"
   xmlns:xlink="http://www.w3.org/1999/xlink"
   xmlns="http://www.w3.org/2000/svg"
   xmlns:svg="http://www.w3.org/2000/svg"><defs
   id="defs1643"><linearGradient
     inkscape:collect="always"
     id="linearGradient12387"><stop
       style="stop-color:#4d4d4d;stop-opacity:1;"
       offset="0"
       id="stop12383" /><stop
       style="stop-color:#4d4d4d;stop-opacity:0;"
       offset="1"
       id="stop12385" /></linearGradient><rect
     x="78.135299"
     y="135.7645"
     width="59.043416"
     height="40.305086"
     id="rect49254" /><linearGradient
     inkscape:collect="always"
     xlink:href="#linearGradient12387"
     id="linearGradient12389"
     x1="16.716021"
     y1="50.565582"
     x2="22.918362"
     y2="50.467171"
     gradientUnits="userSpaceOnUse" /></defs><sodipodi:namedview
   id="namedview1641"
   pagecolor="#ffffff"
   bordercolor="#666666"
   borderopacity="1.0"
   inkscape:pageshadow="2"
   inkscape:pageopacity="0.0"
   inkscape:pagecheckerboard="0"
   showgrid="false"
   inkscape:zoom="0.99999999"
   inkscape:cx="30.5"
   inkscape:cy="171.5"
   inkscape:window-width="1827"
   inkscape:window-height="1051"
   inkscape:window-x="84"
   inkscape:window-y="-9"
   inkscape:window-maximized="1"
   inkscape:current-layer="layer3"
   units="mm"
   inkscape:document-units="mm"
   inkscape:blackoutopacity="0.0" />
    
    
    
<g
   inkscape:groupmode="layer"
   id="layer3"
   inkscape:label="Layer 2"
   style="display:inline"><rect
     style="fill:#ececec;stroke-width:0.264583"
     id="rect3954"
     width="40.639999"
     height="128.4986"
     x="0.034966301"
     y="-0.1209349" /><rect
     style="fill:#4d4d4d;stroke:#4d4d4d;stroke-width:0.339631;stroke-linecap:round;stroke-linejoin:round;stroke-miterlimit:0.6;stroke-dasharray:none;paint-order:normal"
     id="rect176400"
     width="9.5523424"
     height="12.023005"
     x="28.045412"
     y="34.058914"
     ry="1.806579" /><rect
     style="clip-rule:evenodd;display:inline;fill:#4d4d4d;fill-rule:evenodd;stroke:#4d4d4d;stroke-width:0.339631;stroke-linecap:round;stroke-linejoin:round;stroke-miterlimit:0.6;stroke-dasharray:none;paint-order:normal"
     id="rect176400-0"
     width="9.5523424"
     height="12.023005"
     x="28.045412"
     y="47.206867"
     ry="1.806579" /><rect
     style="clip-rule:evenodd;display:inline;fill:#4d4d4d;fill-rule:evenodd;stroke:#4d4d4d;stroke-width:0.339631;stroke-linecap:round;stroke-linejoin:round;stroke-miterlimit:0.6;stroke-dasharray:none;paint-order:normal"
     id="rect176400-0-2"
     width="9.5523424"
     height="12.023005"
     x="27.953693"
     y="73.074638"
     ry="1.806579" /><rect
     style="clip-rule:evenodd;display:inline;fill:#4d4d4d;fill-rule:evenodd;stroke:#4d4d4d;stroke-width:0.339631;stroke-linecap:round;stroke-linejoin:round;stroke-miterlimit:0.6;stroke-dasharray:none;paint-order:normal"
     id="rect176400-0-3"
     width="9.5523424"
     height="12.023005"
     x="27.953693"
     y="60.051563"
     ry="1.806579" /><rect
     style="clip-rule:evenodd;display:inline;fill:#4d4d4d;fill-rule:evenodd;stroke:#4d4d4d;stroke-width:0.339631;stroke-linecap:round;stroke-linejoin:round;stroke-miterlimit:0.6;stroke-dasharray:none;paint-order:normal"
     id="rect176400-0-3-6"
     width="9.5523424"
     height="12.023005"
     x="27.953693"
     y="86.215813"
     ry="1.806579" /><rect
     style="clip-rule:evenodd;display:inline;fill:#4d4d4d;fill-rule:evenodd;stroke:#4d4d4d;stroke-width:0.339631;stroke-linecap:round;stroke-linejoin:round;stroke-miterlimit:0.6;stroke-dasharray:none;paint-order:normal"
     id="rect176400-0-3-5"
     width="9.5523424"
     height="12.023005"
     x="27.948553"
     y="112.27198"
     ry="1.806579" /><rect
     style="clip-rule:evenodd;display:inline;fill:#4d4d4d;fill-rule:evenodd;stroke:#4d4d4d;stroke-width:0.339631;stroke-linecap:round;stroke-linejoin:round;stroke-miterlimit:0.6;stroke-dasharray:none;paint-order:normal"
     id="rect176400-0-3-66"
     width="9.5523424"
     height="12.023005"
     x="14.636345"
     y="105.32467"
     ry="1.806579" /><rect
     style="clip-rule:evenodd;display:inline;fill:#4d4d4d;fill-rule:evenodd;stroke:#4d4d4d;stroke-width:0.339631;stroke-linecap:round;stroke-linejoin:round;stroke-miterlimit:0.6;stroke-dasharray:none;paint-order:normal"
     id="rect176400-0-3-0"
     width="9.5523424"
     height="12.023005"
     x="14.636345"
     y="92.397133"
     ry="1.806579" /></g><g
   inkscape:groupmode="layer"
   id="layer4"
   inkscape:label="Layer 3"
   style="display:inline"><path
     style="fill:#4d4d4d;stroke:#4d4d4d;stroke-width:0.264583px;stroke-linecap:butt;stroke-linejoin:miter;stroke-opacity:1"
     d="M 6.5481032,51.542928 32.927604,38.072544"
     id="path35285" /><path
     style="fill:#4d4d4d;stroke:#4d4d4d;stroke-width:0.264583px;stroke-linecap:butt;stroke-linejoin:miter;stroke-opacity:1"
     d="M 6.735192,64.919767 33.301783,51.168749"
     id="path35287" /><path
     style="fill:#4d4d4d;stroke:#4d4d4d;stroke-width:0.264583px;stroke-linecap:butt;stroke-linejoin:miter;stroke-opacity:1"
     d="M 6.735192,77.454709 33.114694,64.826223"
     id="path35289" /><path
     style="fill:#4d4d4d;stroke:#4d4d4d;stroke-width:0.264583px;stroke-linecap:butt;stroke-linejoin:miter;stroke-opacity:1"
     d="M 7.0158249,90.363825 33.021151,77.922429"
     id="path35291" /><path
     style="fill:#4d4d4d;stroke:#4d4d4d;stroke-width:0.264583px;stroke-linecap:butt;stroke-linejoin:miter;stroke-opacity:1"
     d="M 6.6416477,104.20839 33.208237,90.925091"
     id="path35293" /><path
     style="fill:#4d4d4d;stroke:#4d4d4d;stroke-width:0.264583px;stroke-linecap:butt;stroke-linejoin:miter;stroke-opacity:1"
     d="M 5.9868373,117.49168 33.208237,103.74067"
     id="path35295" /><path
     style="fill:#4d4d4d;stroke:#000000;stroke-width:0.264583px;stroke-linecap:butt;stroke-linejoin:miter;stroke-opacity:1"
     d="M 6.8287362,38.259633 32.459885,25.818236"
     id="path35297" /><text
     xml:space="preserve"
     transform="scale(0.26458333)"
     id="text49252"
     style="font-size:40px;line-height:1.25;font-family:'Source Sans Pro';-inkscape-font-specification:'Source Sans Pro';white-space:pre;shape-inside:url(#rect49254)" /><g
     aria-label="MACRO"
     id="text52428"
     style="font-size:4.23333px;line-height:1.25;font-family:'Source Sans Pro';-inkscape-font-specification:'Source Sans Pro';stroke-width:0.264583;fill:#4d4d4d"
     transform="rotate(-26.268946,22.396372,31.916581)"><path
       d="m 21.615564,34.237228 v -2.777064 h 0.423332 l 0.5334,1.481665 q 0.0508,0.143934 0.09737,0.2921 0.0508,0.143933 0.1016,0.287867 h 0.01693 q 0.0508,-0.143934 0.09313,-0.287867 0.04657,-0.148166 0.09737,-0.2921 l 0.524933,-1.481665 h 0.427566 v 2.777064 h -0.3302 v -1.528232 q 0,-0.186266 0.01693,-0.410633 0.01693,-0.224366 0.02963,-0.410633 h -0.01693 l -0.220133,0.630767 -0.524933,1.439332 h -0.23283 L 22.127796,32.518497 21.907663,31.88773 h -0.01693 q 0.0127,0.186267 0.0254,0.410633 0.01693,0.224367 0.01693,0.410633 v 1.528232 z"
       id="path60430"
       style="fill:#4d4d4d" /><path
       d="m 25.171557,32.683596 -0.131233,0.423333 h 0.833966 l -0.131233,-0.423333 q -0.0762,-0.232833 -0.143933,-0.461433 -0.06773,-0.232833 -0.135467,-0.474133 h -0.01693 q -0.0635,0.2413 -0.131233,0.474133 -0.06773,0.2286 -0.143934,0.461433 z m -0.846666,1.553632 0.9398,-2.777064 h 0.397933 l 0.939799,2.777064 H 26.225657 L 25.96319,33.390562 h -1.011766 l -0.266699,0.846666 z"
       id="path60432"
       style="fill:#4d4d4d" /><path
       d="m 28.003649,34.288028 q -0.262467,0 -0.4826,-0.09737 -0.220133,-0.09737 -0.385233,-0.2794 -0.160866,-0.186267 -0.253999,-0.452966 -0.0889,-0.270933 -0.0889,-0.6096 0,-0.334433 0.09313,-0.601133 0.09313,-0.266699 0.258233,-0.452966 0.1651,-0.186266 0.389466,-0.283633 0.224367,-0.1016 0.491067,-0.1016 0.253999,0 0.444499,0.105833 0.194733,0.1016 0.3175,0.237067 l -0.1905,0.2286 q -0.110066,-0.118534 -0.249766,-0.1905 -0.1397,-0.07197 -0.3175,-0.07197 -0.198967,0 -0.359833,0.08043 -0.160867,0.0762 -0.275167,0.224367 -0.114299,0.143933 -0.177799,0.351366 -0.05927,0.207433 -0.05927,0.465667 0,0.262466 0.05927,0.474133 0.0635,0.207433 0.173566,0.355599 0.110067,0.148167 0.2667,0.2286 0.160866,0.08043 0.359833,0.08043 0.2032,0 0.3556,-0.08043 0.152399,-0.08467 0.287866,-0.232833 l 0.194733,0.220133 q -0.1651,0.1905 -0.372533,0.296333 -0.207433,0.105833 -0.478366,0.105833 z"
       id="path60434"
       style="fill:#4d4d4d" /><path
       d="m 29.371011,34.237228 v -2.777064 h 0.867832 q 0.211667,0 0.389467,0.04233 0.182033,0.0381 0.309033,0.131234 0.131233,0.09313 0.2032,0.241299 0.07197,0.148167 0.07197,0.364067 0,0.325966 -0.169333,0.520699 -0.169333,0.194733 -0.457199,0.2667 l 0.706966,1.210732 H 30.89501 l -0.668866,-1.172632 h -0.503767 v 1.172632 z m 0.351366,-1.460498 h 0.465667 q 0.325966,0 0.499532,-0.131234 0.173567,-0.135466 0.173567,-0.406399 0,-0.275167 -0.173567,-0.385233 -0.173566,-0.110067 -0.499532,-0.110067 h -0.465667 z"
       id="path60436"
       style="fill:#4d4d4d" /><path
       d="m 32.804234,34.288028 q -0.262467,0 -0.4826,-0.1016 -0.2159,-0.101599 -0.372533,-0.287866 -0.156633,-0.1905 -0.245533,-0.4572 -0.08467,-0.270933 -0.08467,-0.605366 0,-0.334433 0.08467,-0.596899 0.0889,-0.2667 0.245533,-0.448733 0.156633,-0.186267 0.372533,-0.283633 0.220133,-0.09737 0.4826,-0.09737 0.262466,0 0.478366,0.1016 0.220133,0.09737 0.376767,0.283633 0.160866,0.182033 0.245533,0.448733 0.0889,0.262467 0.0889,0.592666 0,0.334433 -0.0889,0.605366 -0.08467,0.2667 -0.245533,0.4572 -0.156634,0.186267 -0.376767,0.287866 -0.2159,0.1016 -0.478366,0.1016 z m 0,-0.309033 q 0.186266,0 0.334433,-0.08043 0.1524,-0.08043 0.258233,-0.2286 0.110067,-0.1524 0.169333,-0.359833 0.05927,-0.211666 0.05927,-0.474133 0,-0.258233 -0.05927,-0.465666 -0.05927,-0.207433 -0.169333,-0.351366 -0.105833,-0.143934 -0.258233,-0.220134 -0.148167,-0.08043 -0.334433,-0.08043 -0.186267,0 -0.338666,0.08043 -0.148167,0.0762 -0.258234,0.220134 -0.105833,0.143933 -0.165099,0.351366 -0.05927,0.207433 -0.05927,0.465666 0,0.262467 0.05927,0.474133 0.05927,0.207433 0.165099,0.359833 0.110067,0.148167 0.258234,0.2286 0.152399,0.08043 0.338666,0.08043 z"
       id="path60438"
       style="fill:#4d4d4d" /></g><g
     aria-label="MACRO CV"
     id="text66093"
     style="font-size:2.82222px;line-height:1.25;font-family:'Source Sans Pro';-inkscape-font-specification:'Source Sans Pro';stroke-width:0.264583;fill:#4d4d4d"
     transform="translate(-0.21047476,1.6370259)"><path
       d="m 1.2461874,42.597916 v -1.851377 h 0.282222 l 0.3555997,0.987777 q 0.033867,0.09596 0.064911,0.194733 0.033867,0.09596 0.067733,0.191911 h 0.011289 q 0.033867,-0.09595 0.062089,-0.191911 0.031044,-0.09878 0.064911,-0.194733 l 0.3499553,-0.987777 h 0.2850443 v 1.851377 H 2.5698086 v -1.018822 q 0,-0.124177 0.011289,-0.273755 0.011289,-0.149578 0.019756,-0.273755 h -0.011289 l -0.1467554,0.42051 -0.3499553,0.959555 H 1.9376313 L 1.587676,41.452094 1.4409206,41.031584 h -0.011289 q 0.00847,0.124177 0.016933,0.273755 0.011289,0.149578 0.011289,0.273755 v 1.018822 z"
       id="path184841"
       style="fill:#4d4d4d" /><path
       d="m 3.6168503,41.562161 -0.087489,0.282222 H 4.0853389 L 3.99785,41.562161 Q 3.94705,41.406939 3.901895,41.254539 3.856739,41.099317 3.811584,40.93845 H 3.800295 q -0.042333,0.160867 -0.087489,0.316089 -0.045155,0.1524 -0.095956,0.307622 z m -0.564444,1.035755 0.6265329,-1.851377 h 0.2652887 l 0.6265328,1.851377 H 4.3195831 L 4.1446055,42.033472 H 3.4700949 L 3.292295,42.597916 Z"
       id="path184843"
       style="fill:#4d4d4d" /><path
       d="m 5.5049113,42.631782 q -0.1749777,0 -0.3217331,-0.06491 -0.1467555,-0.06491 -0.256822,-0.186266 -0.1072444,-0.124178 -0.1693332,-0.301978 -0.059267,-0.180622 -0.059267,-0.4064 0,-0.222955 0.062089,-0.400755 0.062089,-0.1778 0.1721554,-0.301977 0.1100666,-0.124178 0.2596443,-0.189089 0.1495776,-0.06773 0.3273775,-0.06773 0.1693332,0 0.2963331,0.07055 0.1298221,0.06773 0.2116665,0.158044 l -0.1269999,0.1524 q -0.073378,-0.07902 -0.166511,-0.127 -0.093133,-0.04798 -0.2116665,-0.04798 -0.1326443,0 -0.2398887,0.05362 -0.1072444,0.0508 -0.1834443,0.149578 -0.0762,0.09595 -0.1185333,0.234244 -0.039511,0.138289 -0.039511,0.310444 0,0.174978 0.039511,0.316089 0.042333,0.138288 0.1157111,0.237066 0.073378,0.09878 0.1777998,0.1524 0.1072444,0.05362 0.2398887,0.05362 0.1354666,0 0.2370665,-0.05362 0.1016,-0.05644 0.191911,-0.155222 l 0.1298221,0.146755 q -0.1100666,0.127 -0.2483553,0.197556 -0.1382888,0.07055 -0.3189109,0.07055 z"
       id="path184845"
       style="fill:#4d4d4d" /><path
       d="m 6.4164859,42.597916 v -1.851377 h 0.5785552 q 0.141111,0 0.2596442,0.02822 0.1213555,0.0254 0.2060221,0.08749 0.087489,0.06209 0.1354665,0.160867 0.047978,0.09878 0.047978,0.242711 0,0.217311 -0.1128888,0.347133 -0.1128888,0.129822 -0.3047998,0.1778 l 0.4713108,0.807155 H 7.4324852 L 6.9865744,41.816161 H 6.6507302 v 0.781755 z M 6.6507302,41.62425 h 0.3104442 q 0.217311,0 0.333022,-0.08749 0.115711,-0.09031 0.115711,-0.270933 0,-0.183445 -0.115711,-0.256822 -0.115711,-0.07338 -0.333022,-0.07338 H 6.6507302 Z"
       id="path184847"
       style="fill:#4d4d4d" /><path
       d="m 8.705302,42.631782 q -0.1749777,0 -0.3217331,-0.06773 -0.1439332,-0.06773 -0.2483554,-0.191911 -0.1044221,-0.127 -0.1636887,-0.3048 -0.056444,-0.180622 -0.056444,-0.403577 0,-0.222956 0.056444,-0.397933 0.059267,-0.1778 0.1636887,-0.299156 0.1044222,-0.124177 0.2483554,-0.189088 0.1467554,-0.06491 0.3217331,-0.06491 0.1749776,0 0.3189109,0.06773 0.1467554,0.06491 0.2511775,0.189089 0.1072444,0.121355 0.1636888,0.299155 0.059267,0.174978 0.059267,0.395111 0,0.222955 -0.059267,0.403577 -0.056444,0.1778 -0.1636888,0.3048 -0.1044221,0.124178 -0.2511775,0.191911 -0.1439333,0.06773 -0.3189109,0.06773 z m 0,-0.206022 q 0.1241777,0 0.2229554,-0.05362 0.1015999,-0.05362 0.1721554,-0.1524 0.073378,-0.1016 0.1128888,-0.239889 0.039511,-0.141111 0.039511,-0.316088 0,-0.172156 -0.039511,-0.310444 -0.039511,-0.138289 -0.1128888,-0.234245 -0.070556,-0.09596 -0.1721554,-0.146755 -0.098778,-0.05362 -0.2229554,-0.05362 -0.1241777,0 -0.2257776,0.05362 -0.098778,0.0508 -0.1721555,0.146755 -0.070555,0.09596 -0.1100665,0.234245 -0.039511,0.138288 -0.039511,0.310444 0,0.174977 0.039511,0.316088 0.039511,0.138289 0.1100665,0.239889 0.073378,0.09878 0.1721555,0.1524 0.1015999,0.05362 0.2257776,0.05362 z"
       id="path184849"
       style="fill:#4d4d4d" /><path
       d="m 11.160629,42.631782 q -0.174978,0 -0.321733,-0.06491 -0.146756,-0.06491 -0.256822,-0.186266 -0.107245,-0.124178 -0.169333,-0.301978 -0.05927,-0.180622 -0.05927,-0.4064 0,-0.222955 0.06209,-0.400755 0.06209,-0.1778 0.172155,-0.301977 0.110067,-0.124178 0.259644,-0.189089 0.149578,-0.06773 0.327378,-0.06773 0.169333,0 0.296333,0.07055 0.129822,0.06773 0.211667,0.158044 l -0.127,0.1524 q -0.07338,-0.07902 -0.166511,-0.127 -0.09313,-0.04798 -0.211667,-0.04798 -0.132644,0 -0.239888,0.05362 -0.107245,0.0508 -0.183445,0.149578 -0.0762,0.09595 -0.118533,0.234244 -0.03951,0.138289 -0.03951,0.310444 0,0.174978 0.03951,0.316089 0.04233,0.138288 0.115711,0.237066 0.07338,0.09878 0.1778,0.1524 0.107244,0.05362 0.239889,0.05362 0.135466,0 0.237066,-0.05362 0.1016,-0.05644 0.191911,-0.155222 l 0.129822,0.146755 q -0.110066,0.127 -0.248355,0.197556 -0.138289,0.07055 -0.318911,0.07055 z"
       id="path184851"
       style="fill:#4d4d4d" /><path
       d="m 12.399577,42.597916 -0.592666,-1.851377 h 0.251177 l 0.296333,0.999066 q 0.0508,0.166511 0.08749,0.307622 0.03951,0.141111 0.09313,0.3048 h 0.01129 q 0.0508,-0.163689 0.09031,-0.3048 0.03951,-0.141111 0.08749,-0.307622 l 0.296333,-0.999066 h 0.239889 l -0.587022,1.851377 z"
       id="path184853"
       style="fill:#4d4d4d" /></g><g
     aria-label="LEFT"
     id="text77539"
     style="font-size:2.82222px;line-height:1.25;font-family:'Source Sans Pro';-inkscape-font-specification:'Source Sans Pro';fill:#4d4d4d;stroke-width:0.264583"
     transform="translate(-1.9697757,1.2732238)"><path
       d="m 4.0243124,56.091663 v -1.851376 h 0.2342442 v 1.650999 h 0.8099772 v 0.200377 z"
       id="path184814"
       style="fill:#4d4d4d" /><path
       d="m 5.3959061,56.091663 v -1.851376 h 1.0667992 v 0.197555 h -0.832555 v 0.581378 h 0.7027328 v 0.200377 H 5.6301503 v 0.671689 h 0.8607772 v 0.200377 z"
       id="path184816"
       style="fill:#4d4d4d" /><path
       d="m 6.8832119,56.091663 v -1.851376 h 1.0667992 v 0.197555 H 7.1174562 v 0.626533 h 0.705555 v 0.197556 h -0.705555 v 0.829732 z"
       id="path184818"
       style="fill:#4d4d4d" /><path
       d="M 8.6612089,56.091663 V 54.437842 H 8.1024094 V 54.240287 H 9.457075 v 0.197555 H 8.8982754 v 1.653821 z"
       id="path184820"
       style="fill:#4d4d4d" /></g><g
     aria-label="RIGHT"
     id="text91961"
     style="font-size:2.82222px;line-height:1.25;font-family:'Source Sans Pro';-inkscape-font-specification:'Source Sans Pro';fill:#4d4d4d;stroke-width:0.264583"
     transform="translate(1.8992479,0.7967139)"><path
       d="M 3.5612913,70.577606 V 68.72623 h 0.5785551 q 0.141111,0 0.2596443,0.02822 0.1213554,0.0254 0.206022,0.08749 0.087489,0.06209 0.1354666,0.160866 0.047978,0.09878 0.047978,0.242711 0,0.217311 -0.1128889,0.347133 -0.1128888,0.129823 -0.3047997,0.1778 l 0.4713107,0.807155 H 4.5772905 L 4.1313798,69.795851 H 3.7955356 v 0.781755 z M 3.7955356,69.60394 h 0.3104442 q 0.2173109,0 0.333022,-0.08749 0.115711,-0.09031 0.115711,-0.270933 0,-0.183444 -0.115711,-0.256822 -0.1157111,-0.07338 -0.333022,-0.07338 H 3.7955356 Z"
       id="path185043"
       style="fill:#4d4d4d" /><path
       d="M 5.1671299,70.577606 V 68.72623 h 0.2342442 v 1.851376 z"
       id="path185045"
       style="fill:#4d4d4d" /><path
       d="m 6.6375026,70.611473 q -0.1834443,0 -0.3386664,-0.06491 -0.1523999,-0.06491 -0.2624665,-0.186267 -0.1100666,-0.124177 -0.1721554,-0.301977 -0.062089,-0.180622 -0.062089,-0.4064 0,-0.222955 0.062089,-0.400755 0.064911,-0.1778 0.1777998,-0.301978 0.1128889,-0.124177 0.268111,-0.189089 0.1580443,-0.06773 0.3414886,-0.06773 0.095955,0 0.1749776,0.01976 0.081844,0.01976 0.1467555,0.05362 0.067733,0.03104 0.1185332,0.07338 0.053622,0.03951 0.093133,0.08184 l -0.1298221,0.1524 q -0.070556,-0.07338 -0.1636888,-0.124178 -0.093133,-0.0508 -0.2342443,-0.0508 -0.141111,0 -0.2539998,0.05362 -0.1128888,0.0508 -0.1919109,0.149578 -0.079022,0.09596 -0.1241777,0.234244 -0.042333,0.138289 -0.042333,0.310445 0,0.174977 0.039511,0.316088 0.042333,0.138289 0.1185332,0.237067 0.079022,0.09878 0.191911,0.1524 0.115711,0.05362 0.2652886,0.05362 0.098778,0 0.1862666,-0.02822 0.090311,-0.03105 0.1467554,-0.08185 V 69.812785 H 6.6008137 V 69.618051 H 7.207591 v 0.778933 q -0.090311,0.09313 -0.2370664,0.155222 -0.1467555,0.05927 -0.333022,0.05927 z"
       id="path185047"
       style="fill:#4d4d4d" /><path
       d="M 7.6506759,70.577606 V 68.72623 h 0.2342442 v 0.77611 h 0.8607772 v -0.77611 h 0.2370665 v 1.851376 H 8.7456973 V 69.70554 H 7.8849201 v 0.872066 z"
       id="path185049"
       style="fill:#4d4d4d" /><path
       d="M 9.8745809,70.577606 V 68.923785 H 9.3157813 V 68.72623 h 1.3546657 v 0.197555 h -0.5588 v 1.653821 z"
       id="path185051"
       style="fill:#4d4d4d" /></g><g
     aria-label="OR1"
     id="text95841"
     style="font-size:2.82222px;line-height:1.25;font-family:'Source Sans Pro';-inkscape-font-specification:'Source Sans Pro';stroke-width:0.264583;fill:#4d4d4d"
     transform="translate(-0.21047476,1.6370259)"><path
       d="m 5.0086734,82.617912 q -0.1749777,0 -0.3217331,-0.06773 -0.1439333,-0.06773 -0.2483554,-0.191911 -0.1044222,-0.127 -0.1636888,-0.3048 -0.056444,-0.180622 -0.056444,-0.403577 0,-0.222956 0.056444,-0.397933 0.059267,-0.1778 0.1636888,-0.299156 0.1044221,-0.124177 0.2483554,-0.189089 0.1467554,-0.06491 0.3217331,-0.06491 0.1749776,0 0.3189108,0.06773 0.1467555,0.06491 0.2511776,0.189088 0.1072444,0.121356 0.1636888,0.299156 0.059267,0.174977 0.059267,0.395111 0,0.222955 -0.059267,0.403577 -0.056444,0.1778 -0.1636888,0.3048 -0.1044221,0.124177 -0.2511776,0.191911 -0.1439332,0.06773 -0.3189108,0.06773 z m 0,-0.206022 q 0.1241776,0 0.2229553,-0.05362 0.1016,-0.05362 0.1721555,-0.1524 0.073378,-0.1016 0.1128888,-0.239889 0.039511,-0.141111 0.039511,-0.316088 0,-0.172156 -0.039511,-0.310445 -0.039511,-0.138288 -0.1128888,-0.234244 -0.070555,-0.09596 -0.1721555,-0.146755 -0.098778,-0.05362 -0.2229553,-0.05362 -0.1241777,0 -0.2257777,0.05362 -0.098778,0.0508 -0.1721554,0.146755 -0.070556,0.09596 -0.1100666,0.234244 -0.039511,0.138289 -0.039511,0.310445 0,0.174977 0.039511,0.316088 0.039511,0.138289 0.1100666,0.239889 0.073378,0.09878 0.1721554,0.1524 0.1016,0.05362 0.2257777,0.05362 z"
       id="path185133"
       style="fill:#4d4d4d" /><path
       d="m 6.199649,82.584045 v -1.851376 h 0.5785551 q 0.141111,0 0.2596442,0.02822 0.1213555,0.0254 0.2060221,0.08749 0.087489,0.06209 0.1354666,0.160867 0.047978,0.09878 0.047978,0.242711 0,0.21731 -0.1128888,0.347133 -0.1128888,0.129822 -0.3047998,0.177799 l 0.4713108,0.807155 H 7.2156482 L 6.7697374,81.80229 H 6.4338932 v 0.781755 z m 0.2342442,-0.973666 h 0.3104442 q 0.217311,0 0.333022,-0.08749 0.115711,-0.09031 0.115711,-0.270933 0,-0.183445 -0.115711,-0.256822 -0.115711,-0.07338 -0.333022,-0.07338 H 6.4338932 Z"
       id="path185135"
       style="fill:#4d4d4d" /><path
       d="M 7.7744431,82.584045 V 82.392134 H 8.1864872 V 81.065691 H 7.8591097 v -0.149578 q 0.1241777,-0.02258 0.2144887,-0.05362 0.093133,-0.03387 0.166511,-0.07902 h 0.1777999 v 1.608665 h 0.372533 v 0.191911 z"
       id="path185137"
       style="fill:#4d4d4d" /></g><g
     aria-label="AND1"
     id="text99277"
     style="font-size:2.82222px;line-height:1.25;font-family:'Source Sans Pro';-inkscape-font-specification:'Source Sans Pro';stroke-width:0.264583;fill:#4d4d4d"
     transform="translate(-0.21047476,1.6370259)"><path
       d="m 4.1929346,94.517575 -0.087489,0.282222 H 4.661423 L 4.573934,94.517575 Q 4.523134,94.362353 4.477979,94.209953 4.432824,94.054731 4.387668,93.893864 H 4.376379 q -0.042333,0.160867 -0.087489,0.316089 -0.045155,0.1524 -0.095955,0.307622 z m -0.564444,1.035754 0.6265329,-1.851376 H 4.5203122 L 5.146845,95.553329 H 4.8956674 L 4.7206898,94.988885 H 4.0461792 l -0.1777999,0.564444 z"
       id="path185158"
       style="fill:#4d4d4d" /><path
       d="m 5.4093079,95.553329 v -1.851376 h 0.242711 l 0.6688661,1.162755 0.2003776,0.383822 h 0.011289 q -0.00847,-0.141111 -0.019756,-0.290689 -0.00847,-0.1524 -0.00847,-0.299155 V 93.701953 H 6.727281 v 1.851376 H 6.4845738 l -0.6716884,-1.165576 -0.2003776,-0.381 h -0.011289 q 0.011289,0.141111 0.019755,0.287866 0.011289,0.143934 0.011289,0.290689 v 0.968021 z"
       id="path185160"
       style="fill:#4d4d4d" /><path
       d="m 7.2352825,95.553329 v -1.851376 h 0.4628441 q 0.4289775,0 0.6519329,0.237067 0.2229553,0.237066 0.2229553,0.680155 0,0.220133 -0.056444,0.39511 -0.056444,0.172156 -0.1665109,0.293511 -0.1100666,0.118534 -0.2709332,0.183445 -0.1608665,0.06209 -0.3697108,0.06209 z m 0.2342443,-0.19191 h 0.2116665 q 0.3245553,0 0.4854218,-0.194734 0.1636888,-0.194733 0.1636888,-0.54751 0,-0.352778 -0.1636888,-0.539044 Q 8.0057486,93.893864 7.6811933,93.893864 H 7.4695268 Z"
       id="path185162"
       style="fill:#4d4d4d" /><path
       d="m 8.9399027,95.553329 v -0.19191 H 9.3519468 V 94.034975 H 9.0245693 v -0.149578 q 0.1241777,-0.02258 0.2144887,-0.05362 0.093133,-0.03387 0.166511,-0.07902 h 0.1777999 v 1.608666 h 0.372533 v 0.19191 z"
       id="path185164"
       style="fill:#4d4d4d" /></g><g
     aria-label="SLOPE 1"
     id="text101903"
     style="font-size:2.82222px;line-height:1.25;font-family:'Source Sans Pro';-inkscape-font-specification:'Source Sans Pro';stroke-width:0.264583;fill:#4d4d4d"
     transform="translate(-0.21047476,1.6370259)"><path
       d="m 2.8314606,108.96471 q -0.1947331,0 -0.3612441,-0.0734 -0.166511,-0.0734 -0.2878665,-0.20038 l 0.141111,-0.16369 q 0.098778,0.10442 0.2314221,0.16934 0.1354665,0.0621 0.2793998,0.0621 0.1834443,0 0.2850442,-0.0818 0.1015999,-0.0847 0.1015999,-0.22013 0,-0.0706 -0.0254,-0.11854 -0.022578,-0.0508 -0.064911,-0.0847 -0.039511,-0.0367 -0.095955,-0.0649 -0.056444,-0.0282 -0.1213555,-0.0593 L 2.6480168,108.0136 q -0.064911,-0.0282 -0.1326443,-0.0677 -0.067733,-0.0395 -0.1213555,-0.096 -0.053622,-0.0564 -0.087489,-0.13265 -0.033867,-0.079 -0.033867,-0.18062 0,-0.10442 0.042333,-0.19473 0.045156,-0.0903 0.1213554,-0.15522 0.079022,-0.0677 0.1834443,-0.10442 0.1072444,-0.0367 0.2342443,-0.0367 0.166511,0 0.307622,0.0649 0.141111,0.0621 0.2398887,0.16369 l -0.1269999,0.1524 q -0.084667,-0.0818 -0.1890887,-0.127 -0.1016,-0.048 -0.2314221,-0.048 -0.1552221,0 -0.2511776,0.0734 -0.093133,0.0705 -0.093133,0.19755 0,0.0677 0.0254,0.11571 0.028222,0.0452 0.073378,0.0819 0.045155,0.0339 0.098778,0.0621 0.053622,0.0254 0.1100665,0.048 l 0.2624665,0.11289 q 0.079022,0.0339 0.1495777,0.079 0.070555,0.0423 0.1213554,0.1016 0.0508,0.0565 0.079022,0.13547 0.031044,0.0762 0.031044,0.1778 0,0.11007 -0.045155,0.20602 -0.042333,0.096 -0.1241777,0.16934 -0.081844,0.0705 -0.1975554,0.11289 -0.115711,0.0395 -0.2624665,0.0395 z"
       id="path185243"
       style="fill:#4d4d4d" /><path
       d="m 3.8248778,108.93084 v -1.85138 h 0.2342443 v 1.651 h 0.8099772 v 0.20038 z"
       id="path185245"
       style="fill:#4d4d4d" /><path
       d="m 5.8060683,108.96471 q -0.1749776,0 -0.321733,-0.0677 -0.1439333,-0.0677 -0.2483554,-0.19191 -0.1044222,-0.127 -0.1636888,-0.3048 -0.056444,-0.18062 -0.056444,-0.40358 0,-0.22295 0.056444,-0.39793 0.059267,-0.1778 0.1636888,-0.29915 0.1044221,-0.12418 0.2483554,-0.18909 0.1467554,-0.0649 0.321733,-0.0649 0.1749777,0 0.3189109,0.0677 0.1467555,0.0649 0.2511776,0.18909 0.1072444,0.12135 0.1636888,0.29915 0.059267,0.17498 0.059267,0.39511 0,0.22296 -0.059267,0.40358 -0.056444,0.1778 -0.1636888,0.3048 -0.1044221,0.12418 -0.2511776,0.19191 -0.1439332,0.0677 -0.3189109,0.0677 z m 0,-0.20603 q 0.1241777,0 0.2229554,-0.0536 0.1016,-0.0536 0.1721555,-0.1524 0.073378,-0.1016 0.1128888,-0.23989 0.039511,-0.14111 0.039511,-0.31609 0,-0.17215 -0.039511,-0.31044 -0.039511,-0.13829 -0.1128888,-0.23424 -0.070556,-0.096 -0.1721555,-0.14676 -0.098778,-0.0536 -0.2229554,-0.0536 -0.1241776,0 -0.2257776,0.0536 -0.098778,0.0508 -0.1721554,0.14676 -0.070555,0.096 -0.1100666,0.23424 -0.039511,0.13829 -0.039511,0.31044 0,0.17498 0.039511,0.31609 0.039511,0.13829 0.1100666,0.23989 0.073378,0.0988 0.1721554,0.1524 0.1016,0.0536 0.2257776,0.0536 z"
       id="path185247"
       style="fill:#4d4d4d" /><path
       d="m 6.9970439,108.93084 v -1.85138 h 0.5277552 q 0.1552221,0 0.282222,0.0282 0.1298221,0.0282 0.2201332,0.0931 0.090311,0.0621 0.141111,0.16651 0.0508,0.10442 0.0508,0.25682 0,0.14676 -0.0508,0.254 -0.047978,0.10725 -0.1382888,0.1778 -0.090311,0.0706 -0.2173109,0.10725 -0.1241777,0.0339 -0.2765776,0.0339 H 7.2312882 v 0.73378 z m 0.2342443,-0.92569 h 0.2765776 q 0.2427109,0 0.3584219,-0.0903 0.1185333,-0.0931 0.1185333,-0.29069 0,-0.20038 -0.1241777,-0.27658 -0.1213555,-0.079 -0.3640664,-0.079 H 7.2312882 Z"
       id="path185249"
       style="fill:#4d4d4d" /><path
       d="m 8.5944203,108.93084 v -1.85138 h 1.0667992 v 0.19756 H 8.8286646 v 0.58138 h 0.7027328 v 0.20037 H 8.8286646 v 0.67169 h 0.8607771 v 0.20038 z"
       id="path185251"
       style="fill:#4d4d4d" /></g><g
     aria-label="CREASE"
     id="text103821"
     style="font-size:2.82222px;line-height:1.25;font-family:'Source Sans Pro';-inkscape-font-specification:'Source Sans Pro';stroke-width:0.264583;fill:#4d4d4d"
     transform="translate(-0.21047476,1.6370259)"><path
       d="m 2.8012929,122.20522 q -0.1749776,0 -0.3217331,-0.0649 -0.1467554,-0.0649 -0.256822,-0.18626 -0.1072443,-0.12418 -0.1693332,-0.30198 -0.059267,-0.18062 -0.059267,-0.4064 0,-0.22296 0.062089,-0.40076 0.062089,-0.1778 0.1721555,-0.30197 0.1100665,-0.12418 0.2596442,-0.18909 0.1495777,-0.0677 0.3273775,-0.0677 0.1693332,0 0.2963331,0.0706 0.1298222,0.0677 0.2116666,0.15804 l -0.127,0.1524 q -0.073378,-0.079 -0.1665109,-0.127 -0.093133,-0.048 -0.2116665,-0.048 -0.1326444,0 -0.2398888,0.0536 -0.1072443,0.0508 -0.1834443,0.14958 -0.0762,0.096 -0.1185332,0.23424 -0.039511,0.13829 -0.039511,0.31044 0,0.17498 0.039511,0.31609 0.042333,0.13829 0.115711,0.23707 0.073378,0.0988 0.1777999,0.1524 0.1072444,0.0536 0.2398887,0.0536 0.1354666,0 0.2370665,-0.0536 0.1015999,-0.0565 0.1919109,-0.15522 l 0.1298222,0.14675 q -0.1100666,0.127 -0.2483554,0.19756 -0.1382888,0.0705 -0.3189109,0.0705 z"
       id="path185274"
       style="fill:#4d4d4d" /><path
       d="m 3.7128676,122.17136 v -1.85138 h 0.5785551 q 0.141111,0 0.2596443,0.0282 0.1213554,0.0254 0.206022,0.0875 0.087489,0.0621 0.1354666,0.16087 0.047978,0.0988 0.047978,0.24271 0,0.21731 -0.1128888,0.34713 -0.1128888,0.12982 -0.3047997,0.1778 l 0.4713107,0.80716 H 4.7288668 L 4.2829561,121.3896 H 3.9471119 v 0.78176 z m 0.2342443,-0.97367 h 0.3104442 q 0.2173109,0 0.3330219,-0.0875 0.1157111,-0.0903 0.1157111,-0.27093 0,-0.18345 -0.1157111,-0.25682 -0.115711,-0.0734 -0.3330219,-0.0734 H 3.9471119 Z"
       id="path185276"
       style="fill:#4d4d4d" /><path
       d="m 5.3187061,122.17136 v -1.85138 h 1.0667992 v 0.19756 H 5.5529504 v 0.58137 h 0.7027328 v 0.20038 H 5.5529504 v 0.67169 h 0.8607771 v 0.20038 z"
       id="path185278"
       style="fill:#4d4d4d" /><path
       d="m 7.1249226,121.1356 -0.087489,0.28222 H 7.593411 L 7.505922,121.1356 q -0.0508,-0.15522 -0.095956,-0.30762 -0.045155,-0.15522 -0.090311,-0.31609 H 7.308367 q -0.042333,0.16087 -0.087489,0.31609 -0.045155,0.1524 -0.095955,0.30762 z m -0.564444,1.03576 0.6265329,-1.85138 h 0.2652887 l 0.6265328,1.85138 H 7.8276554 L 7.6526778,121.60691 H 6.9781672 l -0.1777999,0.56445 z"
       id="path185280"
       style="fill:#4d4d4d" /><path
       d="m 8.8549403,122.20522 q -0.1947331,0 -0.3612441,-0.0734 -0.166511,-0.0734 -0.2878665,-0.20038 l 0.141111,-0.16369 q 0.098778,0.10442 0.2314221,0.16933 0.1354665,0.0621 0.2793998,0.0621 0.1834443,0 0.2850442,-0.0818 0.1015999,-0.0847 0.1015999,-0.22014 0,-0.0705 -0.0254,-0.11853 -0.022578,-0.0508 -0.064911,-0.0847 -0.039511,-0.0367 -0.095955,-0.0649 -0.056444,-0.0282 -0.1213555,-0.0593 L 8.671496,121.25413 q -0.064911,-0.0282 -0.1326443,-0.0677 -0.067733,-0.0395 -0.1213555,-0.096 -0.053622,-0.0564 -0.087489,-0.13265 -0.033867,-0.079 -0.033867,-0.18062 0,-0.10442 0.042333,-0.19473 0.045155,-0.0903 0.1213554,-0.15523 0.079022,-0.0677 0.1834443,-0.10442 0.1072444,-0.0367 0.2342443,-0.0367 0.166511,0 0.307622,0.0649 0.141111,0.0621 0.2398887,0.16369 l -0.1269999,0.1524 q -0.084667,-0.0818 -0.1890887,-0.127 -0.1016,-0.048 -0.2314221,-0.048 -0.1552221,0 -0.2511776,0.0734 -0.093133,0.0706 -0.093133,0.19756 0,0.0677 0.0254,0.11571 0.028222,0.0451 0.073378,0.0818 0.045155,0.0339 0.098778,0.0621 0.053622,0.0254 0.1100665,0.048 l 0.2624665,0.11289 q 0.079022,0.0339 0.1495777,0.079 0.070555,0.0423 0.1213554,0.1016 0.0508,0.0564 0.079022,0.13547 0.031044,0.0762 0.031044,0.1778 0,0.11006 -0.045155,0.20602 -0.042333,0.096 -0.1241777,0.16933 -0.081844,0.0706 -0.1975554,0.11289 -0.115711,0.0395 -0.2624665,0.0395 z"
       id="path185282"
       style="fill:#4d4d4d" /><path
       d="m 9.8483573,122.17136 v -1.85138 h 1.0667987 v 0.19756 h -0.832554 v 0.58137 h 0.702732 v 0.20038 h -0.702732 v 0.67169 h 0.860777 v 0.20038 z"
       id="path185284"
       style="fill:#4d4d4d" /></g><g
     aria-label="FADE"
     id="text108115"
     style="font-size:2.82222px;line-height:1.25;font-family:'Source Sans Pro';-inkscape-font-specification:'Source Sans Pro';stroke-width:0.264583;fill-opacity:1;fill:url(#linearGradient12389)"
     transform="translate(0.63142428,0.60803816)"><path
       d="m 16.129,51.395313 v -1.851376 h 1.066799 v 0.197555 h -0.832555 v 0.626533 h 0.705555 v 0.197556 h -0.705555 v 0.829732 z"
       id="path184787"
       style="fill-opacity:1.0;fill:url(#linearGradient12389)" /><path
       d="m 17.737662,50.359558 -0.08749,0.282222 H 18.20615 L 18.11866,50.359558 Q 18.06786,50.204336 18.0227,50.051937 17.97754,49.896714 17.93239,49.735848 H 17.9211 q -0.04233,0.160866 -0.08749,0.316089 -0.04516,0.152399 -0.09596,0.307621 z m -0.564444,1.035755 0.626533,-1.851376 h 0.265288 l 0.626533,1.851376 h -0.251177 l -0.174978,-0.564444 h -0.67451 l -0.1778,0.564444 z"
       id="path184789"
       style="fill-opacity:1.0;fill:url(#linearGradient12389)" /><path
       d="m 18.954035,51.395313 v -1.851376 h 0.462844 q 0.428978,0 0.651933,0.237066 0.222956,0.237067 0.222956,0.680155 0,0.220134 -0.05645,0.395111 -0.05644,0.172156 -0.166511,0.293511 -0.110066,0.118533 -0.270933,0.183444 -0.160866,0.06209 -0.369711,0.06209 z m 0.234245,-0.191911 h 0.211666 q 0.324555,0 0.485422,-0.194733 0.163689,-0.194733 0.163689,-0.547511 0,-0.352777 -0.163689,-0.539044 -0.160867,-0.186266 -0.485422,-0.186266 H 19.18828 Z"
       id="path184791"
       style="fill-opacity:1.0;fill:url(#linearGradient12389)" /><path
       d="m 20.6897,51.395313 v -1.851376 h 1.066799 v 0.197555 h -0.832555 v 0.581378 h 0.702733 v 0.200377 h -0.702733 v 0.671689 h 0.860778 v 0.200377 z"
       id="path184793"
       style="fill-opacity:1.0;fill:url(#linearGradient12389)" /></g><g
     aria-label="OFFSET"
     id="text109043"
     style="font-size:2.82222px;font-family:'Source Sans Pro';-inkscape-font-specification:'Source Sans Pro';stroke-width:0.264583;fill:#4d4d4d"
     transform="translate(1.5717058,-0.36656771)"><path
       style="color:#000000;-inkscape-font-specification:'Source Sans Pro';clip-rule:nonzero;fill:#4d4d4d;fill-rule:nonzero;stroke-linejoin:miter;-inkscape-stroke:none"
       d="m 16.944269,63.600013 q -0.174978,0 -0.321733,-0.06773 -0.143933,-0.06773 -0.248356,-0.191911 -0.104422,-0.127 -0.163688,-0.3048 -0.05645,-0.180622 -0.05645,-0.403577 0,-0.222955 0.05645,-0.397933 0.05927,-0.1778 0.163688,-0.299155 0.104423,-0.124178 0.248356,-0.189089 0.146755,-0.06491 0.321733,-0.06491 0.174978,0 0.318911,0.06773 0.146755,0.06491 0.251177,0.189089 0.107245,0.121355 0.163689,0.299155 0.05927,0.174978 0.05927,0.395111 0,0.222955 -0.05927,0.403577 -0.05644,0.1778 -0.163689,0.3048 -0.104422,0.124178 -0.251177,0.191911 -0.143933,0.06773 -0.318911,0.06773 z m 0,-0.206022 q 0.124178,0 0.222955,-0.05362 0.1016,-0.05362 0.172156,-0.1524 0.07338,-0.1016 0.112888,-0.239888 0.03951,-0.141111 0.03951,-0.316089 0,-0.172155 -0.03951,-0.310444 -0.03951,-0.138289 -0.112888,-0.234244 -0.07056,-0.09596 -0.172156,-0.146756 -0.09878,-0.05362 -0.222955,-0.05362 -0.124178,0 -0.225778,0.05362 -0.09878,0.0508 -0.172155,0.146756 -0.07056,0.09595 -0.110067,0.234244 -0.03951,0.138289 -0.03951,0.310444 0,0.174978 0.03951,0.316089 0.03951,0.138288 0.110067,0.239888 0.07338,0.09878 0.172155,0.1524 0.1016,0.05362 0.225778,0.05362 z"
       id="path182752" /><path
       style="color:#000000;-inkscape-font-specification:'Source Sans Pro';clip-rule:nonzero;fill:#4d4d4d;fill-rule:nonzero;stroke-linejoin:miter;-inkscape-stroke:none"
       d="M 18.135244,63.566147 V 61.71477 h 1.0668 v 0.197556 h -0.832555 v 0.626533 h 0.705555 v 0.197555 h -0.705555 v 0.829733 z"
       id="path182754" /><path
       style="color:#000000;-inkscape-font-specification:'Source Sans Pro';clip-rule:nonzero;fill:#4d4d4d;fill-rule:nonzero;stroke-linejoin:miter;-inkscape-stroke:none"
       d="M 19.52942,63.566147 V 61.71477 h 1.066799 v 0.197556 h -0.832555 v 0.626533 h 0.705555 v 0.197555 h -0.705555 v 0.829733 z"
       id="path182756" /><path
       style="color:#000000;-inkscape-font-specification:'Source Sans Pro';clip-rule:nonzero;fill:#4d4d4d;fill-rule:nonzero;stroke-linejoin:miter;-inkscape-stroke:none"
       d="m 21.380794,63.600013 q -0.194734,0 -0.361245,-0.07338 -0.166511,-0.07338 -0.287866,-0.200378 l 0.141111,-0.163689 q 0.09878,0.104423 0.231422,0.169334 0.135467,0.06209 0.2794,0.06209 0.183444,0 0.285044,-0.08184 0.1016,-0.08467 0.1016,-0.220133 0,-0.07056 -0.0254,-0.118533 -0.02258,-0.0508 -0.06491,-0.08467 -0.03951,-0.03669 -0.09596,-0.06491 -0.05644,-0.02822 -0.121355,-0.05927 l -0.265289,-0.115711 q -0.06491,-0.02822 -0.132644,-0.06773 -0.06773,-0.03951 -0.121356,-0.09596 -0.05362,-0.05644 -0.08749,-0.132645 -0.03387,-0.07902 -0.03387,-0.180622 0,-0.104422 0.04233,-0.194733 0.04516,-0.09031 0.121356,-0.155222 0.07902,-0.06773 0.183444,-0.104422 0.107244,-0.03669 0.234244,-0.03669 0.166511,0 0.307622,0.06491 0.141111,0.06209 0.239889,0.163689 l -0.127,0.1524 q -0.08467,-0.08185 -0.189089,-0.127 -0.1016,-0.04798 -0.231422,-0.04798 -0.155222,0 -0.251177,0.07338 -0.09313,0.07055 -0.09313,0.197555 0,0.06773 0.0254,0.115711 0.02822,0.04516 0.07338,0.08184 0.04516,0.03387 0.09878,0.06209 0.05362,0.0254 0.110066,0.04798 l 0.262467,0.112889 q 0.07902,0.03387 0.149578,0.07902 0.07055,0.04233 0.121355,0.1016 0.0508,0.05644 0.07902,0.135466 0.03104,0.0762 0.03104,0.1778 0,0.110067 -0.04516,0.206022 -0.04233,0.09596 -0.124178,0.169334 -0.08184,0.07055 -0.197555,0.112888 -0.115711,0.03951 -0.262466,0.03951 z"
       id="path182758" /><path
       style="color:#000000;-inkscape-font-specification:'Source Sans Pro';clip-rule:nonzero;fill:#4d4d4d;fill-rule:nonzero;stroke-linejoin:miter;-inkscape-stroke:none"
       d="M 22.37421,63.566147 V 61.71477 h 1.0668 v 0.197556 h -0.832555 v 0.581377 h 0.702733 v 0.200378 h -0.702733 v 0.671688 h 0.860777 v 0.200378 z"
       id="path182760" /><path
       style="color:#000000;-inkscape-font-specification:'Source Sans Pro';clip-rule:nonzero;fill:#4d4d4d;fill-rule:nonzero;stroke-linejoin:miter;-inkscape-stroke:none"
       d="m 24.245338,63.566147 v -1.653821 h -0.5588 V 61.71477 h 1.354666 v 0.197556 h -0.558799 v 1.653821 z"
       id="path182762" /></g><g
     aria-label="OR2"
     id="text109971"
     style="font-size:2.82222px;line-height:1.25;font-family:'Source Sans Pro';-inkscape-font-specification:'Source Sans Pro';stroke-width:0.264583;fill:#4d4d4d"
     transform="translate(-0.21047476,1.6370259)"><path
       d="m 18.137647,76.411552 q -0.174977,0 -0.321733,-0.06773 -0.143933,-0.06773 -0.248355,-0.191911 -0.104422,-0.127 -0.163689,-0.3048 -0.05644,-0.180622 -0.05644,-0.403577 0,-0.222956 0.05644,-0.397933 0.05927,-0.1778 0.163689,-0.299156 0.104422,-0.124177 0.248355,-0.189088 0.146756,-0.06491 0.321733,-0.06491 0.174978,0 0.318911,0.06773 0.146756,0.06491 0.251178,0.189089 0.107244,0.121355 0.163689,0.299155 0.05927,0.174978 0.05927,0.395111 0,0.222955 -0.05927,0.403577 -0.05645,0.1778 -0.163689,0.3048 -0.104422,0.124178 -0.251178,0.191911 -0.143933,0.06773 -0.318911,0.06773 z m 0,-0.206022 q 0.124178,0 0.222956,-0.05362 0.1016,-0.05362 0.172155,-0.1524 0.07338,-0.1016 0.112889,-0.239889 0.03951,-0.141111 0.03951,-0.316088 0,-0.172156 -0.03951,-0.310445 -0.03951,-0.138288 -0.112889,-0.234244 -0.07056,-0.09596 -0.172155,-0.146755 -0.09878,-0.05362 -0.222956,-0.05362 -0.124177,0 -0.225777,0.05362 -0.09878,0.0508 -0.172156,0.146755 -0.07055,0.09596 -0.110066,0.234244 -0.03951,0.138289 -0.03951,0.310445 0,0.174977 0.03951,0.316088 0.03951,0.138289 0.110066,0.239889 0.07338,0.09878 0.172156,0.1524 0.1016,0.05362 0.225777,0.05362 z"
       id="path185108"
       style="fill:#4d4d4d" /><path
       d="m 19.328623,76.377686 v -1.851377 h 0.578555 q 0.141111,0 0.259644,0.02822 0.121356,0.0254 0.206022,0.08749 0.08749,0.06209 0.135467,0.160867 0.04798,0.09878 0.04798,0.242711 0,0.217311 -0.112889,0.347133 -0.112889,0.129822 -0.3048,0.1778 l 0.471311,0.807155 H 20.344624 L 19.898713,75.59593 h -0.335844 v 0.781755 z m 0.234244,-0.973666 h 0.310444 q 0.217311,0 0.333022,-0.08749 0.115711,-0.09031 0.115711,-0.270933 0,-0.183445 -0.115711,-0.256822 -0.115711,-0.07338 -0.333022,-0.07338 h -0.310444 z"
       id="path185110"
       style="fill:#4d4d4d" /><path
       d="m 20.79335,76.377686 v -0.138289 q 0.2032,-0.2032 0.361245,-0.366889 0.158044,-0.163689 0.265288,-0.301977 0.107245,-0.141111 0.163689,-0.256822 0.05644,-0.118534 0.05644,-0.2286 0,-0.155222 -0.08467,-0.254 -0.08467,-0.09878 -0.256822,-0.09878 -0.112889,0 -0.208844,0.06491 -0.09596,0.06209 -0.174978,0.1524 l -0.132644,-0.132644 q 0.112888,-0.124178 0.239888,-0.197556 0.127,-0.0762 0.3048,-0.0762 0.251178,0 0.395111,0.146756 0.143933,0.143933 0.143933,0.383822 0,0.127 -0.05644,0.256822 -0.05362,0.127 -0.1524,0.265289 -0.09596,0.135466 -0.231422,0.285044 -0.132645,0.146755 -0.293511,0.313266 0.07338,-0.0056 0.1524,-0.01129 0.07902,-0.0056 0.149577,-0.0056 h 0.522111 v 0.200378 z"
       id="path185112"
       style="fill:#4d4d4d" /></g><g
     aria-label="AND2"
     id="text110965"
     style="font-size:2.82222px;line-height:1.25;font-family:'Source Sans Pro';-inkscape-font-specification:'Source Sans Pro';stroke-width:0.264583;fill:#4d4d4d"
     transform="translate(-0.21047476,1.6370259)"><path
       d="m 17.27376,88.450161 -0.08749,0.282222 h 0.555978 l -0.08749,-0.282222 q -0.0508,-0.155222 -0.09596,-0.307622 -0.04515,-0.155222 -0.09031,-0.316088 h -0.01129 q -0.04233,0.160866 -0.08749,0.316088 -0.04516,0.1524 -0.09596,0.307622 z m -0.564444,1.035755 0.626533,-1.851376 h 0.265289 l 0.626533,1.851376 h -0.251178 l -0.174978,-0.564444 h -0.67451 l -0.1778,0.564444 z"
       id="path185185"
       style="fill:#4d4d4d" /><path
       d="M 18.490134,89.485916 V 87.63454 h 0.24271 l 0.668867,1.162754 0.200377,0.383822 h 0.01129 q -0.0085,-0.141111 -0.01975,-0.290688 -0.0085,-0.1524 -0.0085,-0.299156 V 87.63454 h 0.222955 v 1.851376 H 19.565399 L 18.893711,88.320339 18.693333,87.93934 h -0.01129 q 0.01129,0.141111 0.01976,0.287866 0.01129,0.143933 0.01129,0.290689 v 0.968021 z"
       id="path185187"
       style="fill:#4d4d4d" /><path
       d="M 20.316108,89.485916 V 87.63454 h 0.462844 q 0.428978,0 0.651933,0.237066 0.222955,0.237067 0.222955,0.680155 0,0.220133 -0.05644,0.395111 -0.05644,0.172156 -0.166511,0.293511 -0.110067,0.118533 -0.270933,0.183444 -0.160867,0.06209 -0.369711,0.06209 z m 0.234244,-0.191911 h 0.211667 q 0.324555,0 0.485422,-0.194733 0.163688,-0.194733 0.163688,-0.547511 0,-0.352777 -0.163688,-0.539044 -0.160867,-0.186266 -0.485422,-0.186266 h -0.211667 z"
       id="path185189"
       style="fill:#4d4d4d" /><path
       d="m 21.910662,89.485916 v -0.138289 q 0.2032,-0.203199 0.361244,-0.366888 0.158044,-0.163689 0.265289,-0.301978 0.107244,-0.141111 0.163688,-0.256822 0.05645,-0.118533 0.05645,-0.2286 0,-0.155222 -0.08467,-0.253999 -0.08467,-0.09878 -0.256822,-0.09878 -0.112889,0 -0.208844,0.06491 -0.09596,0.06209 -0.174978,0.1524 l -0.132644,-0.132645 q 0.112889,-0.124177 0.239889,-0.197555 0.126999,-0.0762 0.304799,-0.0762 0.251178,0 0.395111,0.146756 0.143933,0.143933 0.143933,0.383821 0,0.127 -0.05644,0.256822 -0.05362,0.127 -0.1524,0.265289 -0.09596,0.135467 -0.231422,0.285044 -0.132644,0.146756 -0.293511,0.313267 0.07338,-0.0056 0.1524,-0.01129 0.07902,-0.0056 0.149578,-0.0056 h 0.52211 v 0.200377 z"
       id="path185191"
       style="fill:#4d4d4d" /></g><text
     xml:space="preserve"
     style="font-size:3.52777px;line-height:1.25;font-family:'Source Sans Pro';-inkscape-font-specification:'Source Sans Pro';fill:#ffffff;stroke-width:0.264583"
     x="16.007292"
     y="101.93073"
     id="text120251"><tspan
       sodipodi:role="line"
       id="tspan120249"
       style="fill:#ffffff;stroke-width:0.264583"
       x="16.007292"
       y="101.93073" /></text><g
     aria-label="FOLLOW"
     id="text121531"
     style="font-size:2.11667px;line-height:1.25;font-family:'Source Sans Pro';-inkscape-font-specification:'Source Sans Pro';stroke-width:0.264583"
     transform="matrix(1.1582389,0,0,1.2116793,-3.2445774,-19.929476)"><path
       d="m 15.937909,101.98083 v -1.38854 h 0.800101 v 0.14817 h -0.624417 v 0.4699 h 0.529167 v 0.14817 h -0.529167 v 0.6223 z"
       style="fill:#ffffff"
       id="path185212" /><path
       d="m 17.47461,102.00623 q -0.131234,0 -0.2413,-0.0508 -0.107951,-0.0508 -0.186267,-0.14394 -0.07832,-0.0953 -0.122767,-0.2286 -0.04233,-0.13546 -0.04233,-0.30268 0,-0.16722 0.04233,-0.29845 0.04445,-0.13335 0.122767,-0.22437 0.07832,-0.0931 0.186267,-0.14181 0.110066,-0.0487 0.2413,-0.0487 0.131233,0 0.239184,0.0508 0.110066,0.0487 0.188383,0.14182 0.08043,0.091 0.122767,0.22437 0.04445,0.13123 0.04445,0.29633 0,0.16722 -0.04445,0.30268 -0.04233,0.13335 -0.122767,0.2286 -0.07832,0.0931 -0.188383,0.14394 -0.107951,0.0508 -0.239184,0.0508 z m 0,-0.15452 q 0.09313,0 0.167217,-0.0402 0.0762,-0.0402 0.129117,-0.1143 0.05503,-0.0762 0.08467,-0.17991 0.02963,-0.10584 0.02963,-0.23707 0,-0.12912 -0.02963,-0.23283 -0.02963,-0.10372 -0.08467,-0.17569 -0.05292,-0.072 -0.129117,-0.11006 -0.07408,-0.0402 -0.167217,-0.0402 -0.09313,0 -0.169334,0.0402 -0.07408,0.0381 -0.129117,0.11006 -0.05292,0.072 -0.08255,0.17569 -0.02963,0.10371 -0.02963,0.23283 0,0.13123 0.02963,0.23707 0.02963,0.10371 0.08255,0.17991 0.05503,0.0741 0.129117,0.1143 0.0762,0.0402 0.169334,0.0402 z"
       style="fill:#ffffff"
       id="path185214" /><path
       d="m 18.367844,101.98083 v -1.38854 h 0.175683 v 1.23825 h 0.607485 v 0.15029 z"
       style="fill:#ffffff"
       id="path185216" /><path
       d="m 19.396541,101.98083 v -1.38854 h 0.175684 v 1.23825 h 0.607484 v 0.15029 z"
       style="fill:#ffffff"
       id="path185218" /><path
       d="m 20.882438,102.00623 q -0.131234,0 -0.241301,-0.0508 -0.10795,-0.0508 -0.186267,-0.14394 -0.07832,-0.0953 -0.122767,-0.2286 -0.04233,-0.13546 -0.04233,-0.30268 0,-0.16722 0.04233,-0.29845 0.04445,-0.13335 0.122767,-0.22437 0.07832,-0.0931 0.186267,-0.14181 0.110067,-0.0487 0.241301,-0.0487 0.131233,0 0.239183,0.0508 0.110067,0.0487 0.188384,0.14182 0.08043,0.091 0.122767,0.22437 0.04445,0.13123 0.04445,0.29633 0,0.16722 -0.04445,0.30268 -0.04233,0.13335 -0.122767,0.2286 -0.07832,0.0931 -0.188384,0.14394 -0.10795,0.0508 -0.239183,0.0508 z m 0,-0.15452 q 0.09313,0 0.167217,-0.0402 0.0762,-0.0402 0.129116,-0.1143 0.05503,-0.0762 0.08467,-0.17991 0.02963,-0.10584 0.02963,-0.23707 0,-0.12912 -0.02963,-0.23283 -0.02963,-0.10372 -0.08467,-0.17569 -0.05292,-0.072 -0.129116,-0.11006 -0.07408,-0.0402 -0.167217,-0.0402 -0.09313,0 -0.169334,0.0402 -0.07408,0.0381 -0.129117,0.11006 -0.05292,0.072 -0.08255,0.17569 -0.02963,0.10371 -0.02963,0.23283 0,0.13123 0.02963,0.23707 0.02963,0.10371 0.08255,0.17991 0.05503,0.0741 0.129117,0.1143 0.0762,0.0402 0.169334,0.0402 z"
       style="fill:#ffffff"
       id="path185220" /><path
       d="m 21.91537,101.98083 -0.294217,-1.38854 h 0.182034 l 0.14605,0.75565 q 0.01905,0.1143 0.04022,0.22437 0.02117,0.11007 0.04022,0.22437 h 0.0085 q 0.02328,-0.1143 0.04868,-0.22437 0.0254,-0.11218 0.04868,-0.22437 l 0.192617,-0.75565 h 0.160867 l 0.192617,0.75565 q 0.0254,0.11007 0.0508,0.22225 0.0254,0.11219 0.0508,0.22649 h 0.0085 q 0.01905,-0.1143 0.0381,-0.22437 0.01905,-0.11218 0.04022,-0.22437 l 0.146051,-0.75565 h 0.169333 l -0.287867,1.38854 h -0.211667 l -0.20955,-0.83609 q -0.01905,-0.0804 -0.03598,-0.15663 -0.01482,-0.0783 -0.03175,-0.15875 h -0.0085 q -0.01693,0.0804 -0.03598,0.15875 -0.01693,0.0762 -0.03387,0.15663 l -0.205317,0.83609 z"
       style="fill:#ffffff"
       id="path185222" /></g><text
     xml:space="preserve"
     style="font-size:3.52777px;line-height:1.25;font-family:'Source Sans Pro';-inkscape-font-specification:'Source Sans Pro';stroke-width:0.264583"
     x="16.007292"
     y="114.76302"
     id="text123917"><tspan
       sodipodi:role="line"
       id="tspan123915"
       style="stroke-width:0.264583"
       x="16.007292"
       y="114.76302" /></text><g
     aria-label="LOCATION"
     id="text127891"
     style="font-size:2.11667px;line-height:1.25;font-family:'Source Sans Pro';-inkscape-font-specification:'Source Sans Pro';fill:#ffffff;stroke-width:0.264583"
     transform="matrix(0.99817626,0,0,1.0928488,-0.04536293,-9.6738465)"><path
       d="m 15.139459,115.55677 v -1.38854 h 0.175683 v 1.23826 h 0.607485 v 0.15028 z"
       id="path185305" /><path
       d="m 16.625355,115.58217 q -0.131234,0 -0.2413,-0.0508 -0.107951,-0.0508 -0.186267,-0.14393 -0.07832,-0.0952 -0.122767,-0.2286 -0.04233,-0.13547 -0.04233,-0.30269 0,-0.16721 0.04233,-0.29845 0.04445,-0.13335 0.122767,-0.22436 0.07832,-0.0931 0.186267,-0.14182 0.110066,-0.0487 0.2413,-0.0487 0.131234,0 0.239184,0.0508 0.110067,0.0487 0.188383,0.14182 0.08043,0.091 0.122767,0.22437 0.04445,0.13123 0.04445,0.29633 0,0.16722 -0.04445,0.30269 -0.04233,0.13335 -0.122767,0.2286 -0.07832,0.0931 -0.188383,0.14393 -0.10795,0.0508 -0.239184,0.0508 z m 0,-0.15452 q 0.09313,0 0.167217,-0.0402 0.0762,-0.0402 0.129117,-0.1143 0.05503,-0.0762 0.08467,-0.17992 0.02963,-0.10583 0.02963,-0.23707 0,-0.12911 -0.02963,-0.23283 -0.02963,-0.10372 -0.08467,-0.17568 -0.05292,-0.072 -0.129117,-0.11007 -0.07408,-0.0402 -0.167217,-0.0402 -0.09313,0 -0.169334,0.0402 -0.07408,0.0381 -0.129116,0.11007 -0.05292,0.072 -0.08255,0.17568 -0.02963,0.10372 -0.02963,0.23283 0,0.13124 0.02963,0.23707 0.02963,0.10372 0.08255,0.17992 0.05503,0.0741 0.129116,0.1143 0.0762,0.0402 0.169334,0.0402 z"
       id="path185307" /><path
       d="m 18.043523,115.58217 q -0.131234,0 -0.2413,-0.0487 -0.110067,-0.0487 -0.192617,-0.1397 -0.08043,-0.0931 -0.127001,-0.22649 -0.04445,-0.13546 -0.04445,-0.3048 0,-0.16721 0.04657,-0.30056 0.04657,-0.13335 0.129117,-0.22649 0.08255,-0.0931 0.194734,-0.14182 0.112183,-0.0508 0.245533,-0.0508 0.127,0 0.222251,0.0529 0.09737,0.0508 0.15875,0.11854 l -0.09525,0.1143 q -0.05503,-0.0593 -0.124884,-0.0952 -0.06985,-0.036 -0.15875,-0.036 -0.09948,0 -0.179917,0.0402 -0.08043,0.0381 -0.137584,0.11218 -0.05715,0.072 -0.0889,0.17569 -0.02963,0.10371 -0.02963,0.23283 0,0.13123 0.02963,0.23707 0.03175,0.10371 0.08678,0.1778 0.05503,0.0741 0.13335,0.1143 0.08043,0.0402 0.179917,0.0402 0.1016,0 0.1778,-0.0402 0.0762,-0.0423 0.143934,-0.11642 l 0.09737,0.11007 q -0.08255,0.0952 -0.186267,0.14816 -0.103717,0.0529 -0.239184,0.0529 z"
       id="path185309" /><path
       d="m 18.966389,114.77995 -0.06562,0.21167 h 0.416984 l -0.06562,-0.21167 q -0.0381,-0.11641 -0.07197,-0.23071 -0.03387,-0.11642 -0.06773,-0.23707 h -0.0085 q -0.03175,0.12065 -0.06562,0.23707 -0.03387,0.1143 -0.07197,0.23071 z m -0.423334,0.77682 0.469901,-1.38854 h 0.198967 l 0.469901,1.38854 H 19.49344 l -0.131233,-0.42333 h -0.505885 l -0.13335,0.42333 z"
       id="path185311" /><path
       d="M 20.050121,115.55677 V 114.3164 H 19.63102 v -0.14817 h 1.016002 v 0.14817 h -0.419101 v 1.24037 z"
       id="path185313" /><path
       d="m 20.896787,115.55677 v -1.38854 h 0.175684 v 1.38854 z"
       id="path185315" /><path
       d="m 21.965702,115.58217 q -0.131233,0 -0.2413,-0.0508 -0.10795,-0.0508 -0.186267,-0.14393 -0.07832,-0.0952 -0.122767,-0.2286 -0.04233,-0.13547 -0.04233,-0.30269 0,-0.16721 0.04233,-0.29845 0.04445,-0.13335 0.122767,-0.22436 0.07832,-0.0931 0.186267,-0.14182 0.110067,-0.0487 0.2413,-0.0487 0.131234,0 0.239184,0.0508 0.110067,0.0487 0.188384,0.14182 0.08043,0.091 0.122767,0.22437 0.04445,0.13123 0.04445,0.29633 0,0.16722 -0.04445,0.30269 -0.04233,0.13335 -0.122767,0.2286 -0.07832,0.0931 -0.188384,0.14393 -0.10795,0.0508 -0.239184,0.0508 z m 0,-0.15452 q 0.09313,0 0.167217,-0.0402 0.0762,-0.0402 0.129117,-0.1143 0.05503,-0.0762 0.08467,-0.17992 0.02963,-0.10583 0.02963,-0.23707 0,-0.12911 -0.02963,-0.23283 -0.02963,-0.10372 -0.08467,-0.17568 -0.05292,-0.072 -0.129117,-0.11007 -0.07408,-0.0402 -0.167217,-0.0402 -0.09313,0 -0.169333,0.0402 -0.07408,0.0381 -0.129117,0.11007 -0.05292,0.072 -0.08255,0.17568 -0.02963,0.10372 -0.02963,0.23283 0,0.13124 0.02963,0.23707 0.02963,0.10372 0.08255,0.17992 0.05503,0.0741 0.129117,0.1143 0.0762,0.0402 0.169333,0.0402 z"
       id="path185317" /><path
       d="m 22.858936,115.55677 v -1.38854 h 0.182034 l 0.501651,0.87207 0.150283,0.28787 h 0.0085 q -0.0064,-0.10583 -0.01482,-0.21802 -0.0064,-0.1143 -0.0064,-0.22436 v -0.71756 h 0.167217 v 1.38854 h -0.182033 l -0.503768,-0.87418 -0.150283,-0.28575 h -0.0085 q 0.0085,0.10583 0.01482,0.2159 0.0085,0.10795 0.0085,0.21801 v 0.72602 z"
       id="path185319" /></g><rect
     style="clip-rule:evenodd;display:inline;fill:#4d4d4d;fill-rule:evenodd;stroke:#4d4d4d;stroke-width:0.339631;stroke-linecap:round;stroke-linejoin:round;stroke-miterlimit:0.6;stroke-dasharray:none;paint-order:normal"
     id="rect176400-0-3-1"
     width="9.5523424"
     height="12.023005"
     x="27.953693"
     y="99.143349"
     ry="1.806579" /><g
     aria-label="CREASE"
     id="text162119"
     style="font-size:2.11667px;line-height:1.25;font-family:'Source Sans Pro';-inkscape-font-specification:'Source Sans Pro';stroke-width:0.264583"
     transform="matrix(1.2500781,0,0,1.3505742,-8.2900709,-36.568811)"><path
       d="m 30.109636,108.67559 q -0.131234,0 -0.241301,-0.0487 -0.110066,-0.0487 -0.192617,-0.1397 -0.08043,-0.0931 -0.127,-0.22648 -0.04445,-0.13547 -0.04445,-0.30481 0,-0.16721 0.04657,-0.30056 0.04657,-0.13335 0.129117,-0.22649 0.08255,-0.0931 0.194733,-0.14181 0.112184,-0.0508 0.245534,-0.0508 0.127,0 0.22225,0.0529 0.09737,0.0508 0.158751,0.11854 l -0.09525,0.1143 q -0.05503,-0.0593 -0.124883,-0.0952 -0.06985,-0.036 -0.15875,-0.036 -0.09948,0 -0.179917,0.0402 -0.08043,0.0381 -0.137584,0.11218 -0.05715,0.072 -0.0889,0.17569 -0.02963,0.10371 -0.02963,0.23283 0,0.13123 0.02963,0.23707 0.03175,0.10372 0.08678,0.1778 0.05503,0.0741 0.13335,0.1143 0.08043,0.0402 0.179917,0.0402 0.1016,0 0.1778,-0.0402 0.0762,-0.0423 0.143934,-0.11642 l 0.09737,0.11007 q -0.08255,0.0953 -0.186267,0.14817 -0.103716,0.0529 -0.239183,0.0529 z"
       style="fill:#ffffff"
       id="path185373" /><path
       d="m 30.793318,108.65019 v -1.38853 h 0.433918 q 0.105833,0 0.194733,0.0212 0.09102,0.019 0.154517,0.0656 0.06562,0.0466 0.1016,0.12065 0.03598,0.0741 0.03598,0.18203 0,0.16299 -0.08467,0.26035 -0.08467,0.0974 -0.2286,0.13335 l 0.353483,0.60537 h -0.198967 l -0.334433,-0.58632 h -0.251884 v 0.58632 z m 0.175684,-0.73025 h 0.232834 q 0.162983,0 0.249767,-0.0656 0.08678,-0.0677 0.08678,-0.2032 0,-0.13758 -0.08678,-0.19261 -0.08678,-0.055 -0.249767,-0.055 h -0.232834 z"
       style="fill:#ffffff"
       id="path185375" /><path
       d="m 31.9977,108.65019 v -1.38853 h 0.800101 v 0.14816 h -0.624417 v 0.43604 h 0.52705 v 0.15028 h -0.52705 v 0.50377 h 0.645584 v 0.15028 z"
       style="fill:#ffffff"
       id="path185377" /><path
       d="m 33.352366,107.87337 -0.06562,0.21167 h 0.416984 l -0.06562,-0.21167 q -0.0381,-0.11641 -0.07197,-0.23071 -0.03387,-0.11642 -0.06773,-0.23707 h -0.0085 q -0.03175,0.12065 -0.06562,0.23707 -0.03387,0.1143 -0.07197,0.23071 z m -0.423334,0.77682 0.4699,-1.38853 h 0.198967 l 0.469901,1.38853 h -0.188384 l -0.131233,-0.42333 h -0.505884 l -0.13335,0.42333 z"
       style="fill:#ffffff"
       id="path185379" /><path
       d="m 34.649881,108.67559 q -0.14605,0 -0.270933,-0.055 -0.124884,-0.055 -0.215901,-0.15028 l 0.105834,-0.12277 q 0.07408,0.0783 0.173567,0.127 0.1016,0.0466 0.20955,0.0466 0.137584,0 0.213784,-0.0614 0.0762,-0.0635 0.0762,-0.1651 0,-0.0529 -0.01905,-0.0889 -0.01693,-0.0381 -0.04868,-0.0635 -0.02963,-0.0275 -0.07197,-0.0487 -0.04233,-0.0212 -0.09102,-0.0444 l -0.198967,-0.0868 q -0.04868,-0.0212 -0.09948,-0.0508 -0.0508,-0.0296 -0.09102,-0.072 -0.04022,-0.0423 -0.06562,-0.0995 -0.0254,-0.0593 -0.0254,-0.13546 0,-0.0783 0.03175,-0.14605 0.03387,-0.0677 0.09102,-0.11642 0.05927,-0.0508 0.137583,-0.0783 0.08043,-0.0275 0.175684,-0.0275 0.124883,0 0.230717,0.0487 0.105833,0.0466 0.179917,0.12277 l -0.09525,0.1143 q -0.0635,-0.0614 -0.141817,-0.0952 -0.0762,-0.036 -0.173567,-0.036 -0.116417,0 -0.188384,0.055 -0.06985,0.0529 -0.06985,0.14816 0,0.0508 0.01905,0.0868 0.02117,0.0339 0.05503,0.0614 0.03387,0.0254 0.07408,0.0466 0.04022,0.0191 0.08255,0.036 l 0.19685,0.0847 q 0.05927,0.0254 0.112184,0.0593 0.05292,0.0318 0.09102,0.0762 0.0381,0.0423 0.05927,0.1016 0.02328,0.0571 0.02328,0.13336 0,0.0825 -0.03387,0.15451 -0.03175,0.072 -0.09313,0.127 -0.06138,0.0529 -0.148167,0.0847 -0.08678,0.0296 -0.196851,0.0296 z"
       style="fill:#ffffff"
       id="path185381" /><path
       d="m 35.394946,108.65019 v -1.38853 h 0.800101 v 0.14816 H 35.57063 v 0.43604 h 0.527051 v 0.15028 H 35.57063 v 0.50377 h 0.645584 v 0.15028 z"
       style="fill:#ffffff"
       id="path185383" /></g><g
     aria-label="SLOPE"
     id="text165351"
     style="font-size:2.82223px;line-height:1.25;font-family:'Source Sans Pro';-inkscape-font-specification:'Source Sans Pro';stroke-width:0.264583"
     transform="translate(-0.0479574,2.0716747)"><path
       d="m 29.673376,95.548454 q -0.194734,0 -0.361246,-0.07338 -0.166511,-0.07338 -0.287867,-0.200378 l 0.141111,-0.16369 q 0.09878,0.104423 0.231423,0.169334 0.135467,0.06209 0.279401,0.06209 0.183445,0 0.285045,-0.08184 0.101601,-0.08467 0.101601,-0.220134 0,-0.07056 -0.0254,-0.118534 -0.02258,-0.0508 -0.06491,-0.08467 -0.03951,-0.03669 -0.09596,-0.06491 -0.05644,-0.02822 -0.121355,-0.05927 l -0.26529,-0.115711 q -0.06491,-0.02822 -0.132645,-0.06773 -0.06773,-0.03951 -0.121356,-0.09596 -0.05362,-0.05644 -0.08749,-0.132645 -0.03387,-0.07902 -0.03387,-0.180622 0,-0.104423 0.04233,-0.194734 0.04515,-0.09031 0.121356,-0.155223 0.07902,-0.06773 0.183445,-0.104422 0.107244,-0.03669 0.234245,-0.03669 0.166511,0 0.307623,0.06491 0.141111,0.06209 0.239889,0.163689 l -0.127,0.152401 q -0.08467,-0.08185 -0.189089,-0.127001 -0.101601,-0.04798 -0.231423,-0.04798 -0.155223,0 -0.251179,0.07338 -0.09313,0.07056 -0.09313,0.197557 0,0.06773 0.0254,0.115711 0.02822,0.04516 0.07338,0.08185 0.04515,0.03387 0.09878,0.06209 0.05362,0.0254 0.110067,0.04798 l 0.262467,0.112889 q 0.07902,0.03387 0.149578,0.07902 0.07056,0.04233 0.121356,0.101601 0.0508,0.05644 0.07902,0.135467 0.03104,0.0762 0.03104,0.1778 0,0.110067 -0.04516,0.206023 -0.04233,0.09596 -0.124179,0.169334 -0.08184,0.07055 -0.197556,0.112889 -0.115711,0.03951 -0.262467,0.03951 z"
       style="fill:#ffffff"
       id="path185422" /><path
       d="m 30.666797,95.514587 v -1.851383 h 0.234245 v 1.651005 h 0.80998 v 0.200378 z"
       style="fill:#ffffff"
       id="path185424" /><path
       d="m 32.647994,95.548454 q -0.174978,0 -0.321734,-0.06773 -0.143934,-0.06773 -0.248356,-0.191912 -0.104423,-0.127 -0.16369,-0.304801 -0.05644,-0.180623 -0.05644,-0.403579 0,-0.222956 0.05644,-0.397934 0.05927,-0.177801 0.16369,-0.299157 0.104422,-0.124178 0.248356,-0.189089 0.146756,-0.06491 0.321734,-0.06491 0.174978,0 0.318912,0.06773 0.146756,0.06491 0.251179,0.18909 0.107244,0.121356 0.163689,0.299156 0.05927,0.174978 0.05927,0.395112 0,0.222956 -0.05927,0.403579 -0.05644,0.177801 -0.163689,0.304801 -0.104423,0.124178 -0.251179,0.191912 -0.143934,0.06773 -0.318912,0.06773 z m 0,-0.206023 q 0.124178,0 0.222956,-0.05362 0.101601,-0.05362 0.172156,-0.1524 0.07338,-0.101601 0.11289,-0.23989 0.03951,-0.141111 0.03951,-0.31609 0,-0.172156 -0.03951,-0.310445 -0.03951,-0.138289 -0.11289,-0.234245 -0.07055,-0.09596 -0.172156,-0.146756 -0.09878,-0.05362 -0.222956,-0.05362 -0.124178,0 -0.225778,0.05362 -0.09878,0.0508 -0.172156,0.146756 -0.07056,0.09596 -0.110067,0.234245 -0.03951,0.138289 -0.03951,0.310445 0,0.174979 0.03951,0.31609 0.03951,0.138289 0.110067,0.23989 0.07338,0.09878 0.172156,0.1524 0.1016,0.05362 0.225778,0.05362 z"
       style="fill:#ffffff"
       id="path185426" /><path
       d="m 33.838974,95.514587 v -1.851383 h 0.527757 q 0.155223,0 0.282223,0.02822 0.129823,0.02822 0.220134,0.09313 0.09031,0.06209 0.141112,0.166512 0.0508,0.104422 0.0508,0.256823 0,0.146756 -0.0508,0.254001 -0.04798,0.107244 -0.13829,0.1778 -0.09031,0.07056 -0.217311,0.107245 -0.124179,0.03387 -0.276579,0.03387 h -0.304801 v 0.733779 z m 0.234245,-0.925691 h 0.276579 q 0.242711,0 0.358423,-0.09031 0.118534,-0.09313 0.118534,-0.29069 0,-0.200378 -0.124179,-0.276579 -0.121355,-0.07902 -0.364067,-0.07902 h -0.26529 z"
       style="fill:#ffffff"
       id="path185428" /><path
       d="m 35.436356,95.514587 v -1.851383 h 1.066803 v 0.197557 h -0.832558 v 0.581379 h 0.702736 v 0.200378 h -0.702736 v 0.671691 h 0.86078 v 0.200378 z"
       style="fill:#ffffff"
       id="path185430" /></g><g
     aria-label="AND"
     id="text166651"
     style="font-size:2.82223px;line-height:1.25;font-family:'Source Sans Pro';-inkscape-font-specification:'Source Sans Pro';stroke-width:0.264583"
     transform="translate(-0.2491449,2.1405938)"><path
       d="m 31.071185,81.350747 -0.08749,0.282223 h 0.555979 l -0.08749,-0.282223 q -0.0508,-0.155223 -0.09596,-0.307623 -0.04516,-0.155223 -0.09031,-0.31609 h -0.01129 q -0.04233,0.160867 -0.08749,0.31609 -0.04516,0.1524 -0.09596,0.307623 z m -0.564446,1.035758 0.626535,-1.851383 h 0.265289 l 0.626535,1.851383 H 31.77392 l -0.174978,-0.564446 h -0.674513 l -0.177801,0.564446 z"
       style="fill:#ffffff"
       id="path185451" /><path
       d="m 32.287562,82.386505 v -1.851383 h 0.242712 l 0.668868,1.162759 0.200379,0.383823 h 0.01129 q -0.0085,-0.141111 -0.01976,-0.290689 -0.0085,-0.152401 -0.0085,-0.299157 v -0.956736 h 0.222957 v 1.851383 h -0.242712 l -0.671691,-1.165581 -0.200378,-0.381001 h -0.01129 q 0.01129,0.141112 0.01975,0.287868 0.01129,0.143933 0.01129,0.290689 v 0.968025 z"
       style="fill:#ffffff"
       id="path185453" /><path
       d="m 34.113543,82.386505 v -1.851383 h 0.462846 q 0.428979,0 0.651935,0.237068 0.222956,0.237067 0.222956,0.680157 0,0.220134 -0.05644,0.395112 -0.05644,0.172156 -0.166512,0.293512 -0.110067,0.118534 -0.270934,0.183445 -0.160867,0.06209 -0.369712,0.06209 z m 0.234245,-0.191912 h 0.211667 q 0.324557,0 0.485424,-0.194733 0.163689,-0.194734 0.163689,-0.547513 0,-0.352779 -0.163689,-0.539046 -0.160867,-0.186267 -0.485424,-0.186267 h -0.211667 z"
       style="fill:#ffffff"
       id="path185455" /></g><g
     aria-label="OR"
     id="text168359"
     style="font-size:2.82223px;line-height:1.25;font-family:'Source Sans Pro';-inkscape-font-specification:'Source Sans Pro';fill:#ffffff;stroke-width:0.264583"
     transform="translate(-0.3401654,1.7610354)"><path
       d="m 32.229003,69.647156 q -0.174978,0 -0.321734,-0.06773 -0.143934,-0.06773 -0.248356,-0.191912 -0.104423,-0.127 -0.16369,-0.3048 -0.05644,-0.180623 -0.05644,-0.403579 0,-0.222956 0.05644,-0.397935 0.05927,-0.1778 0.16369,-0.299156 0.104422,-0.124178 0.248356,-0.18909 0.146756,-0.06491 0.321734,-0.06491 0.174978,0 0.318912,0.06773 0.146756,0.06491 0.251179,0.189089 0.107244,0.121356 0.163689,0.299157 0.05927,0.174978 0.05927,0.395112 0,0.222956 -0.05927,0.403579 -0.05645,0.1778 -0.163689,0.3048 -0.104423,0.124179 -0.251179,0.191912 -0.143934,0.06773 -0.318912,0.06773 z m 0,-0.206023 q 0.124178,0 0.222956,-0.05362 0.101601,-0.05362 0.172156,-0.1524 0.07338,-0.1016 0.11289,-0.23989 0.03951,-0.141111 0.03951,-0.316089 0,-0.172156 -0.03951,-0.310446 -0.03951,-0.138289 -0.11289,-0.234245 -0.07056,-0.09596 -0.172156,-0.146756 -0.09878,-0.05362 -0.222956,-0.05362 -0.124178,0 -0.225778,0.05362 -0.09878,0.0508 -0.172156,0.146756 -0.07056,0.09596 -0.110067,0.234245 -0.03951,0.13829 -0.03951,0.310446 0,0.174978 0.03951,0.316089 0.03951,0.13829 0.110067,0.23989 0.07338,0.09878 0.172156,0.1524 0.1016,0.05362 0.225778,0.05362 z"
       id="path184948" /><path
       d="m 33.419983,69.613289 v -1.851383 h 0.578557 q 0.141112,0 0.259645,0.02822 0.121356,0.0254 0.206023,0.08749 0.08749,0.06209 0.135467,0.160867 0.04798,0.09878 0.04798,0.242712 0,0.217312 -0.112889,0.347135 -0.112889,0.129822 -0.304801,0.1778 l 0.471312,0.807158 H 34.435988 L 33.990075,68.83153 H 33.65423 v 0.781758 z m 0.234245,-0.97367 h 0.310445 q 0.217312,0 0.333024,-0.08749 0.115711,-0.09031 0.115711,-0.270934 0,-0.183445 -0.115711,-0.256823 -0.115712,-0.07338 -0.333024,-0.07338 h -0.310445 z"
       id="path184950" /></g><g
     aria-label="RIGHT"
     id="text170727"
     style="font-size:2.82223px;line-height:1.25;font-family:'Source Sans Pro';-inkscape-font-specification:'Source Sans Pro';fill:#ffffff;stroke-width:0.264583"
     transform="translate(-0.2296649,1.6974973)"><path
       d="M 29.404939,56.267403 V 54.41602 h 0.578557 q 0.141111,0 0.259645,0.02822 0.121356,0.0254 0.206023,0.08749 0.08749,0.06209 0.135467,0.160867 0.04798,0.09878 0.04798,0.242712 0,0.217312 -0.112889,0.347134 -0.11289,0.129823 -0.304801,0.177801 l 0.471312,0.807158 h -0.265289 l -0.445913,-0.781758 h -0.335845 v 0.781758 z m 0.234245,-0.97367 h 0.310445 q 0.217312,0 0.333023,-0.08749 0.115712,-0.09031 0.115712,-0.270934 0,-0.183445 -0.115712,-0.256823 -0.115711,-0.07338 -0.333023,-0.07338 h -0.310445 z"
       id="path184919" /><path
       d="M 31.010783,56.267403 V 54.41602 h 0.234245 v 1.851383 z"
       id="path184921" /><path
       d="m 32.481161,56.301269 q -0.183445,0 -0.338668,-0.06491 -0.1524,-0.06491 -0.262467,-0.186267 -0.110067,-0.124178 -0.172156,-0.301979 -0.06209,-0.180622 -0.06209,-0.406401 0,-0.222956 0.06209,-0.400756 0.06491,-0.177801 0.1778,-0.301979 0.11289,-0.124178 0.268112,-0.18909 0.158045,-0.06773 0.34149,-0.06773 0.09596,0 0.174978,0.01976 0.08184,0.01975 0.146756,0.05362 0.06773,0.03104 0.118534,0.07338 0.05362,0.03951 0.09313,0.08185 l -0.129823,0.1524 q -0.07056,-0.07338 -0.163689,-0.124178 -0.09313,-0.0508 -0.234245,-0.0508 -0.141112,0 -0.254001,0.05362 -0.112889,0.0508 -0.191912,0.149578 -0.07902,0.09596 -0.124178,0.234245 -0.04233,0.13829 -0.04233,0.310446 0,0.174978 0.03951,0.316089 0.04233,0.13829 0.118534,0.237068 0.07902,0.09878 0.191911,0.1524 0.115712,0.05362 0.26529,0.05362 0.09878,0 0.186267,-0.02822 0.09031,-0.03104 0.146756,-0.08184 v -0.482602 h -0.39229 v -0.194734 h 0.606779 v 0.778936 q -0.09031,0.09313 -0.237067,0.155223 -0.146756,0.05927 -0.333023,0.05927 z"
       id="path184923" /><path
       d="M 33.494338,56.267403 V 54.41602 h 0.234245 v 0.776113 h 0.86078 V 54.41602 h 0.237067 v 1.851383 h -0.237067 v -0.872069 h -0.86078 v 0.872069 z"
       id="path184925" /><path
       d="M 35.718251,56.267403 V 54.613576 H 35.159449 V 54.41602 h 1.354671 v 0.197556 h -0.558802 v 1.653827 z"
       id="path184927" /></g><g
     aria-label="LEFT"
     id="text172557"
     style="font-size:2.82223px;line-height:1.25;font-family:'Source Sans Pro';-inkscape-font-specification:'Source Sans Pro';fill:#ffffff;stroke-width:0.264583"
     transform="translate(0.02492315,2.1131214)"><path
       d="m 30.246453,43.047512 v -1.851383 h 0.234245 v 1.651005 h 0.80998 v 0.200378 z"
       id="path184892" /><path
       d="m 31.618052,43.047512 v -1.851383 h 1.066803 v 0.197556 h -0.832558 v 0.58138 h 0.702735 v 0.200378 h -0.702735 v 0.671691 h 0.86078 v 0.200378 z"
       id="path184894" /><path
       d="m 33.105363,43.047512 v -1.851383 h 1.066803 v 0.197556 h -0.832558 v 0.626535 h 0.705558 v 0.197556 h -0.705558 v 0.829736 z"
       id="path184896" /><path
       d="m 34.883367,43.047512 v -1.653827 h -0.558802 v -0.197556 h 1.35467 v 0.197556 h -0.558801 v 1.653827 z"
       id="path184898" /></g><g
     aria-label="CHILLY CHEESE"
     transform="matrix(0.86531306,0,0,1.1556511,0,0.51449385)"
     id="text9059"
     style="font-style:italic;font-weight:300;font-size:7.33838px;line-height:1.25;font-family:'Source Sans Pro';-inkscape-font-specification:'Source Sans Pro Light Italic';stroke-width:0.305766;fill:#4d4d4d"><path
       d="m 5.4078952,8.5101168 q -0.4109493,0 -0.7191613,-0.1394293 Q 4.3878604,8.2239199 4.1823857,7.9670766 3.9769111,7.7102334 3.8741738,7.3653295 3.7714364,7.0130873 3.7714364,6.602138 q 0,-0.5357017 0.1687828,-1.0860802 Q 4.1090019,4.9583409 4.4245523,4.5106997 4.7401026,4.0630586 5.1950821,3.7842001 5.6500617,3.4980033 6.2224553,3.4980033 q 0.4109493,0 0.6824693,0.2054746 0.2788585,0.1981363 0.4476412,0.4769947 L 7.1177377,4.3492554 Q 6.9709701,4.0997505 6.7508187,3.9383061 6.5306673,3.7695234 6.2004402,3.7695234 q -0.4990099,0 -0.8952824,0.2641816 Q 4.9162237,4.2978867 4.6447036,4.708836 4.3731836,5.1124469 4.226416,5.6041183 4.0869868,6.0957898 4.0869868,6.5581077 q 0,0.3595806 0.080722,0.6677926 0.080722,0.3082119 0.2421665,0.5357017 0.1687827,0.2201514 0.425626,0.3522422 0.2568433,0.1247525 0.6090856,0.1247525 0.3375654,0 0.6090855,-0.1247525 0.27152,-0.1247524 0.5357017,-0.3449038 L 6.758157,7.974415 Q 6.4572835,8.2239199 6.1343948,8.3706875 5.8188444,8.5101168 5.4078952,8.5101168 Z"
       id="path1608"
       style="fill:#4d4d4d" /><path
       d="M 7.594725,8.4220562 8.5560528,3.5860639 H 8.8716031 L 8.4386387,5.7215324 h 2.4950493 l 0.432964,-2.1354685 h 0.315551 l -0.968667,4.8359923 h -0.31555 L 10.889658,5.9930525 H 8.3946084 L 7.9102753,8.4220562 Z"
       id="path1610"
       style="fill:#4d4d4d" /><path
       d="M 12.034442,8.4220562 12.995769,3.5860639 H 13.31132 L 12.349992,8.4220562 Z"
       id="path1612"
       style="fill:#4d4d4d" /><path
       d="m 13.700248,8.4220562 0.961328,-4.8359923 h 0.31555 l -0.90262,4.5644722 h 2.150145 l -0.05871,0.2715201 z"
       id="path1614"
       style="fill:#4d4d4d" /><path
       d="m 16.929125,8.4220562 0.961328,-4.8359923 h 0.315551 l -0.902621,4.5644722 h 2.150145 l -0.05871,0.2715201 z"
       id="path1616"
       style="fill:#4d4d4d" /><path
       d="M 20.356129,8.4220562 20.752402,6.448032 19.952518,3.5860639 h 0.322889 l 0.403611,1.526383 q 0.07338,0.2641817 0.132091,0.521025 0.06605,0.2495049 0.139429,0.5210249 h 0.02935 q 0.176121,-0.2568433 0.344904,-0.5210249 0.176121,-0.2641817 0.352242,-0.521025 l 1.056727,-1.526383 H 23.07133 L 21.067952,6.448032 20.671679,8.4220562 Z"
       id="path1618"
       style="fill:#4d4d4d" /><path
       d="m 25.955297,8.5101168 q -0.41095,0 -0.719162,-0.1394293 Q 24.935262,8.2239199 24.729787,7.9670766 24.524313,7.7102334 24.421575,7.3653295 24.318838,7.0130873 24.318838,6.602138 q 0,-0.5357017 0.168783,-1.0860802 0.168782,-0.5577169 0.484333,-1.0053581 0.31555,-0.4476411 0.77053,-0.7264996 0.454979,-0.2861968 1.027373,-0.2861968 0.410949,0 0.682469,0.2054746 0.278859,0.1981363 0.447641,0.4769947 L 27.665139,4.3492554 Q 27.518371,4.0997505 27.29822,3.9383061 27.078069,3.7695234 26.747842,3.7695234 q -0.49901,0 -0.895283,0.2641816 -0.388934,0.2641817 -0.660454,0.675131 -0.27152,0.4036109 -0.418288,0.8952823 -0.139429,0.4916715 -0.139429,0.9539894 0,0.3595806 0.08072,0.6677926 0.08072,0.3082119 0.242167,0.5357017 0.168783,0.2201514 0.425626,0.3522422 0.256843,0.1247525 0.609085,0.1247525 0.337566,0 0.609086,-0.1247525 0.27152,-0.1247524 0.535702,-0.3449038 l 0.168782,0.2054746 q -0.300873,0.2495049 -0.623762,0.3962725 -0.31555,0.1394293 -0.726499,0.1394293 z"
       id="path1620"
       style="fill:#4d4d4d" /><path
       d="m 28.142128,8.4220562 0.961327,-4.8359923 h 0.315551 l -0.432965,2.1354685 h 2.495049 l 0.432965,-2.1354685 h 0.31555 l -0.968666,4.8359923 h -0.31555 L 31.43706,5.9930525 h -2.495049 l -0.484333,2.4290037 z"
       id="path1622"
       style="fill:#4d4d4d" /><path
       d="m 32.581844,8.4220562 0.961328,-4.8359923 h 2.553756 l -0.05871,0.27152 h -2.238206 l -0.374257,1.8639485 h 1.893302 l -0.05871,0.2715201 h -1.878626 l -0.440302,2.1574836 h 2.304251 l -0.05871,0.2715201 z"
       id="path1624"
       style="fill:#4d4d4d" /><path
       d="m 36.170299,8.4220562 0.961328,-4.8359923 h 2.553756 l -0.05871,0.27152 H 37.38847 l -0.374257,1.8639485 h 1.893302 l -0.05871,0.2715201 H 36.970183 L 36.52988,8.1505361 h 2.304251 l -0.05871,0.2715201 z"
       id="path1626"
       style="fill:#4d4d4d" /><path
       d="m 41.13837,8.5101168 q -0.506348,0 -0.902621,-0.2054747 -0.388934,-0.212813 -0.645777,-0.6164239 l 0.242166,-0.1687827 q 0.234828,0.3449038 0.557717,0.5357017 0.330227,0.1834595 0.785207,0.1834595 0.264181,0 0.484333,-0.080722 0.22749,-0.080722 0.388934,-0.2201514 0.168783,-0.1467676 0.264182,-0.3522422 0.0954,-0.2054746 0.0954,-0.4623179 0,-0.308212 -0.168782,-0.521025 -0.168783,-0.2201514 -0.45498,-0.3889341 L 41.160385,5.8462849 Q 41.013617,5.7582243 40.874188,5.6481486 40.734759,5.5380729 40.632022,5.4059821 40.529284,5.2665529 40.463239,5.1051085 q -0.05871,-0.1614444 -0.05871,-0.3595806 0,-0.2495049 0.102737,-0.4769947 0.102737,-0.2274898 0.286197,-0.3962725 0.183459,-0.1687828 0.440303,-0.2715201 0.256843,-0.1027373 0.565055,-0.1027373 0.440303,0 0.77053,0.1907979 0.337565,0.1907979 0.535702,0.4623179 L 42.892243,4.341917 Q 42.701445,4.1070888 42.415248,3.9383061 42.136389,3.7695234 41.754794,3.7695234 q -0.234828,0 -0.425626,0.08806 -0.190798,0.080722 -0.322889,0.212813 -0.132091,0.1320909 -0.205475,0.3008736 -0.07338,0.1687828 -0.07338,0.3375655 0,0.3302271 0.190797,0.5357017 0.190798,0.2054747 0.447642,0.3522423 l 0.609085,0.3522422 q 0.344904,0.2054746 0.550379,0.4696563 0.205474,0.2641817 0.205474,0.6677926 0,0.3228887 -0.124752,0.5870704 -0.117414,0.2568432 -0.330227,0.4476411 -0.212813,0.1834595 -0.506349,0.2861968 -0.293535,0.1027374 -0.6311,0.1027374 z"
       id="path1628"
       style="fill:#4d4d4d" /><path
       d="m 43.376564,8.4220562 0.961327,-4.8359923 h 2.553757 l -0.05871,0.27152 h -2.238206 l -0.374258,1.8639485 h 1.893302 l -0.05871,0.2715201 h -1.878625 l -0.440303,2.1574836 h 2.304252 l -0.05871,0.2715201 z"
       id="path1630"
       style="fill:#4d4d4d" /></g><g
     aria-label="CHEESE"
     id="text19592"
     style="font-style:italic;font-weight:300;font-size:2.46944px;line-height:1.25;font-family:'Source Sans Pro';-inkscape-font-specification:'Source Sans Pro Light Italic';stroke-width:0.264583"
     transform="matrix(1.0654326,0,0,1.1145849,-2.2560713,-13.858016)"><path
       d="m 29.541961,123.19318 q -0.153105,0 -0.281516,-0.0568 -0.128411,-0.0568 -0.224719,-0.16298 -0.09384,-0.10866 -0.148166,-0.26423 -0.05186,-0.15805 -0.05186,-0.3556 0,-0.19509 0.05433,-0.35066 0.05433,-0.15558 0.150636,-0.26423 0.09631,-0.10866 0.227189,-0.16546 0.13088,-0.0593 0.286455,-0.0593 0.148166,0 0.259291,0.0617 0.113594,0.0593 0.185208,0.13829 l -0.111125,0.13335 q -0.0642,-0.0691 -0.145697,-0.11112 -0.08149,-0.042 -0.185208,-0.042 -0.116064,0 -0.209902,0.0469 -0.09384,0.0444 -0.160514,0.13088 -0.06668,0.084 -0.103716,0.20496 -0.03457,0.121 -0.03457,0.27164 0,0.1531 0.03457,0.27658 0.03704,0.121 0.101247,0.20743 0.0642,0.0864 0.155574,0.13335 0.09384,0.0469 0.209903,0.0469 0.118533,0 0.207433,-0.0469 0.0889,-0.0494 0.167922,-0.13582 l 0.113594,0.12841 q -0.09631,0.11112 -0.217311,0.17286 -0.121002,0.0617 -0.279047,0.0617 z"
       style="font-style:normal;font-weight:normal;-inkscape-font-specification:'Source Sans Pro';fill:#ffffff"
       id="path1010" /><path
       d="m 30.339588,123.16354 v -1.61995 h 0.204964 v 0.6791 h 0.753179 v -0.6791 h 0.207433 v 1.61995 h -0.207433 v -0.76305 h -0.753179 v 0.76305 z"
       style="font-style:normal;font-weight:normal;-inkscape-font-specification:'Source Sans Pro';fill:#ffffff"
       id="path1012" /><path
       d="m 31.949659,123.16354 v -1.61995 h 0.933449 v 0.17286 h -0.728485 v 0.50871 h 0.614891 v 0.17533 h -0.614891 v 0.58772 h 0.753179 v 0.17533 z"
       style="font-style:normal;font-weight:normal;-inkscape-font-specification:'Source Sans Pro';fill:#ffffff"
       id="path1014" /><path
       d="m 33.251051,123.16354 v -1.61995 h 0.933448 v 0.17286 h -0.728485 v 0.50871 h 0.614891 v 0.17533 h -0.614891 v 0.58772 h 0.753179 v 0.17533 z"
       style="font-style:normal;font-weight:normal;-inkscape-font-specification:'Source Sans Pro';fill:#ffffff"
       id="path1016" /><path
       d="m 35.00188,123.19318 q -0.170391,0 -0.316088,-0.0642 -0.145697,-0.0642 -0.251883,-0.17533 l 0.123472,-0.14323 q 0.08643,0.0914 0.202494,0.14817 0.118533,0.0543 0.244475,0.0543 0.160513,0 0.249413,-0.0716 0.0889,-0.0741 0.0889,-0.19261 0,-0.0617 -0.02222,-0.10372 -0.01976,-0.0444 -0.0568,-0.0741 -0.03457,-0.0321 -0.08396,-0.0568 -0.04939,-0.0247 -0.106186,-0.0519 l -0.232127,-0.10124 q -0.0568,-0.0247 -0.116064,-0.0593 -0.05927,-0.0346 -0.106186,-0.084 -0.04692,-0.0494 -0.07655,-0.11607 -0.02963,-0.0691 -0.02963,-0.15804 0,-0.0914 0.03704,-0.17039 0.03951,-0.079 0.106186,-0.13582 0.06914,-0.0593 0.160513,-0.0914 0.09384,-0.0321 0.204964,-0.0321 0.145697,0 0.269169,0.0568 0.123472,0.0543 0.209902,0.14323 l -0.111125,0.13335 q -0.07408,-0.0716 -0.165452,-0.11112 -0.0889,-0.042 -0.202494,-0.042 -0.135819,0 -0.21978,0.0642 -0.08149,0.0617 -0.08149,0.17286 0,0.0593 0.02223,0.10125 0.02469,0.0395 0.0642,0.0716 0.03951,0.0296 0.08643,0.0543 0.04692,0.0222 0.09631,0.042 l 0.229658,0.0988 q 0.06914,0.0296 0.13088,0.0691 0.06174,0.037 0.106186,0.0889 0.04445,0.0494 0.06914,0.11854 0.02716,0.0667 0.02716,0.15557 0,0.0963 -0.03951,0.18027 -0.03704,0.084 -0.108655,0.14817 -0.07161,0.0617 -0.172861,0.0988 -0.101247,0.0346 -0.229658,0.0346 z"
       style="font-style:normal;font-weight:normal;-inkscape-font-specification:'Source Sans Pro';fill:#ffffff"
       id="path1018" /><path
       d="m 35.871119,123.16354 v -1.61995 h 0.933448 v 0.17286 h -0.728484 v 0.50871 h 0.61489 v 0.17533 h -0.61489 v 0.58772 h 0.753179 v 0.17533 z"
       style="font-style:normal;font-weight:normal;-inkscape-font-specification:'Source Sans Pro';fill:#ffffff"
       id="path1020" /></g><circle
     style="display:inline;fill:#ffffff;stroke:#b3b3b3;stroke-width:0.3;stroke-linecap:round;stroke-linejoin:round;stroke-miterlimit:0.6"
     id="path1129"
     cx="2.5387669"
     cy="47.019787"
     r="0.99390852" /><path
     style="fill:#b3b3b3;stroke:#b3b3b3;stroke-width:0.264583px;stroke-linecap:butt;stroke-linejoin:miter;stroke-opacity:1"
     d="m 3.0096354,48.021874 0.6118489,0.892969"
     id="path2078" /><circle
     style="clip-rule:evenodd;display:inline;fill:#ffffff;fill-rule:evenodd;stroke:#b3b3b3;stroke-width:0.3;stroke-linecap:round;stroke-linejoin:round;stroke-miterlimit:0.6"
     id="path1129-0"
     cx="2.5523932"
     cy="59.617825"
     r="0.99390852" /><path
     style="clip-rule:evenodd;display:inline;fill:#b3b3b3;fill-rule:evenodd;stroke:#b3b3b3;stroke-width:0.264583px;stroke-linecap:butt;stroke-linejoin:miter;stroke-miterlimit:1.5;stroke-opacity:1"
     d="m 3.0232618,60.619912 0.6118489,0.892969"
     id="path2078-1" /><circle
     style="clip-rule:evenodd;display:inline;fill:#ffffff;fill-rule:evenodd;stroke:#b3b3b3;stroke-width:0.3;stroke-linecap:round;stroke-linejoin:round;stroke-miterlimit:0.6"
     id="path1129-06"
     cx="16.067032"
     cy="40.070415"
     r="0.99390852" /><path
     style="clip-rule:evenodd;display:inline;fill:#b3b3b3;fill-rule:evenodd;stroke:#b3b3b3;stroke-width:0.264583px;stroke-linecap:butt;stroke-linejoin:miter;stroke-miterlimit:1.5;stroke-opacity:1"
     d="m 16.5379,41.072503 0.611849,0.892969"
     id="path2078-9" /><circle
     style="clip-rule:evenodd;display:inline;fill:#ffffff;fill-rule:evenodd;stroke:#b3b3b3;stroke-width:0.3;stroke-linecap:round;stroke-linejoin:round;stroke-miterlimit:0.6"
     id="path1129-06-7"
     cx="15.365449"
     cy="65.701553"
     r="0.99390852" /><circle
     style="clip-rule:evenodd;display:inline;fill:#ffffff;fill-rule:evenodd;stroke:#b3b3b3;stroke-width:0.421431;stroke-linecap:round;stroke-linejoin:round;stroke-miterlimit:0.6"
     id="path1129-06-7-4"
     cx="1.9960638"
     cy="98.571213"
     r="1.3962138" /><path
     style="clip-rule:evenodd;display:inline;fill:#b3b3b3;fill-rule:evenodd;stroke:#b3b3b3;stroke-width:0.264583px;stroke-linecap:butt;stroke-linejoin:miter;stroke-miterlimit:1.5;stroke-opacity:1"
     d="m 2.7976624,99.804818 0.611849,0.892962"
     id="path2078-9-3-9" /><circle
     style="clip-rule:evenodd;display:inline;fill:#ffffff;fill-rule:evenodd;stroke:#b3b3b3;stroke-width:0.421431;stroke-linecap:round;stroke-linejoin:round;stroke-miterlimit:0.6"
     id="path1129-06-7-4-8"
     cx="15.333501"
     cy="79.283455"
     r="1.3962138" /><path
     style="clip-rule:evenodd;display:inline;fill:#b3b3b3;fill-rule:evenodd;stroke:#b3b3b3;stroke-width:0.264583px;stroke-linecap:butt;stroke-linejoin:miter;stroke-miterlimit:1.5;stroke-opacity:1"
     d="m 16.135099,80.517067 0.611849,0.892962"
     id="path2078-9-3-9-3" /><circle
     style="clip-rule:evenodd;display:inline;fill:#ffffff;fill-rule:evenodd;stroke:#b3b3b3;stroke-width:0.421431;stroke-linecap:round;stroke-linejoin:round;stroke-miterlimit:0.6"
     id="path1129-06-7-4-80"
     cx="15.483127"
     cy="65.885033"
     r="1.3962138" /><path
     style="clip-rule:evenodd;display:inline;fill:#b3b3b3;fill-rule:evenodd;stroke:#b3b3b3;stroke-width:0.264583px;stroke-linecap:butt;stroke-linejoin:miter;stroke-miterlimit:1.5;stroke-opacity:1"
     d="m 16.284725,67.118635 0.611849,0.892962"
     id="path2078-9-3-9-1" /><circle
     style="clip-rule:evenodd;display:inline;fill:#ffffff;fill-rule:evenodd;stroke:#b3b3b3;stroke-width:0.421431;stroke-linecap:round;stroke-linejoin:round;stroke-miterlimit:0.6"
     id="path1129-06-7-4-2"
     cx="2.2216637"
     cy="59.386307"
     r="1.3962138" /><path
     style="clip-rule:evenodd;display:inline;fill:#b3b3b3;fill-rule:evenodd;stroke:#b3b3b3;stroke-width:0.264583px;stroke-linecap:butt;stroke-linejoin:miter;stroke-miterlimit:1.5;stroke-opacity:1"
     d="m 3.0232618,60.619912 0.611849,0.892962"
     id="path2078-9-3-9-5" /><circle
     style="clip-rule:evenodd;display:inline;fill:#ffffff;fill-rule:evenodd;stroke:#b3b3b3;stroke-width:0.421431;stroke-linecap:round;stroke-linejoin:round;stroke-miterlimit:0.6"
     id="path1129-06-7-4-1"
     cx="2.2080369"
     cy="46.788269"
     r="1.3962138" /><path
     style="clip-rule:evenodd;display:inline;fill:#b3b3b3;fill-rule:evenodd;stroke:#b3b3b3;stroke-width:0.264583px;stroke-linecap:butt;stroke-linejoin:miter;stroke-miterlimit:1.5;stroke-opacity:1"
     d="m 3.0096354,48.021874 0.611849,0.892962"
     id="path2078-9-3-9-2" /><circle
     style="clip-rule:evenodd;display:inline;fill:#ffffff;fill-rule:evenodd;stroke:#b3b3b3;stroke-width:0.421431;stroke-linecap:round;stroke-linejoin:round;stroke-miterlimit:0.6"
     id="path1129-06-7-4-6"
     cx="15.7363"
     cy="39.838898"
     r="1.3962138" /><path
     style="clip-rule:evenodd;display:inline;fill:#b3b3b3;fill-rule:evenodd;stroke:#b3b3b3;stroke-width:0.264583px;stroke-linecap:butt;stroke-linejoin:miter;stroke-miterlimit:1.5;stroke-opacity:1"
     d="m 16.5379,41.072503 0.611849,0.892962"
     id="path2078-9-3-9-0" /><text
     xml:space="preserve"
     style="font-style:italic;font-weight:300;font-size:7.05556px;line-height:1.25;font-family:'Source Sans Pro';-inkscape-font-specification:'Source Sans Pro Light Italic';stroke-width:0.264583"
     x="1.6536458"
     y="46.963543"
     id="text9183"><tspan
       sodipodi:role="line"
       id="tspan9181"
       style="stroke-width:0.264583"
       x="1.6536458"
       y="46.963543" /></text><g
     aria-label="+"
     id="text33675"
     style="font-style:italic;font-weight:300;font-size:4.23333px;line-height:1.25;font-family:'Source Sans Pro';-inkscape-font-specification:'Source Sans Pro Light Italic';fill:#808080;stroke-width:0.264583"><path
       d="M 1.9707187,47.758985 V 46.980052 H 1.2256526 v -0.440266 h 0.7450661 v -0.778933 h 0.4571996 v 0.778933 h 0.745066 v 0.440266 h -0.745066 v 0.778933 z"
       style="font-style:normal;font-weight:bold;-inkscape-font-specification:'Source Sans Pro Bold';fill:#808080"
       id="path43759" /></g><g
     aria-label="-"
     transform="scale(1.1464684,0.87224386)"
     id="text33675-4"
     style="font-style:italic;font-weight:300;font-size:4.85338px;line-height:1.25;font-family:'Source Sans Pro';-inkscape-font-specification:'Source Sans Pro Light Italic';display:inline;fill:#808080;stroke-width:0.303336"><path
       d="m 1.3257871,68.378505 v -0.504752 h 1.1939316 v 0.504752 z"
       style="font-style:normal;font-weight:bold;-inkscape-font-specification:'Source Sans Pro Bold';fill:#808080"
       id="path43756" /></g><g
     aria-label="M"
     transform="scale(1.0226426,0.97785875)"
     id="text33675-7"
     style="font-style:italic;font-weight:300;font-size:2.62675px;line-height:1.25;font-family:'Source Sans Pro';-inkscape-font-specification:'Source Sans Pro Light Italic';display:inline;fill:#808080;stroke-width:0.246258"><path
       d="M 14.578472,41.575081 V 39.86244 h 0.422907 l 0.275808,0.761757 q 0.02627,0.07618 0.04991,0.157605 0.02364,0.0788 0.04991,0.157605 h 0.01051 q 0.02627,-0.0788 0.04728,-0.157605 0.02364,-0.08143 0.04991,-0.157605 l 0.270555,-0.761757 h 0.42028 v 1.712641 h -0.351985 v -0.627793 q 0,-0.06304 0.0053,-0.139218 0.0053,-0.07618 0.01313,-0.152352 0.0079,-0.0788 0.01576,-0.152351 0.0079,-0.07618 0.01576,-0.139218 h -0.01051 l -0.139218,0.407146 -0.244288,0.654061 H 15.26668 l -0.244287,-0.654061 -0.136591,-0.407146 h -0.01051 q 0.0079,0.06304 0.01576,0.139218 0.0079,0.07355 0.01576,0.152351 0.0079,0.07618 0.01313,0.152352 0.0053,0.07618 0.0053,0.139218 v 0.627793 z"
       style="font-style:normal;font-weight:bold;-inkscape-font-specification:'Source Sans Pro Bold';fill:#808080"
       id="path43762" /></g><g
     aria-label="M"
     transform="matrix(1.0226426,0,0,0.97785874,0.44840764,0.41498542)"
     id="text33675-7-1"
     style="font-style:italic;font-weight:300;font-size:2.62675px;line-height:1.25;font-family:'Source Sans Pro';-inkscape-font-specification:'Source Sans Pro Light Italic';display:inline;fill:#808080;stroke-width:0.246258"><path
       d="m 13.916459,67.789612 v -1.712641 h 0.422907 l 0.275808,0.761757 q 0.02627,0.07618 0.04991,0.157605 0.02364,0.0788 0.04991,0.157605 h 0.01051 q 0.02627,-0.0788 0.04728,-0.157605 0.02364,-0.08143 0.04991,-0.157605 l 0.270555,-0.761757 h 0.42028 v 1.712641 h -0.351985 v -0.627793 q 0,-0.06304 0.0053,-0.139218 0.0053,-0.07618 0.01313,-0.152352 0.0079,-0.0788 0.01576,-0.152351 0.0079,-0.07618 0.01576,-0.139218 h -0.01051 l -0.139218,0.407146 -0.244288,0.654061 H 14.604667 L 14.36038,66.985826 14.223789,66.57868 h -0.01051 q 0.0079,0.06304 0.01576,0.139218 0.0079,0.07355 0.01576,0.152351 0.0079,0.07618 0.01313,0.152352 0.0053,0.07618 0.0053,0.139218 v 0.627793 z"
       style="font-style:normal;font-weight:bold;-inkscape-font-specification:'Source Sans Pro Bold';fill:#808080"
       id="path43753" /></g><g
     aria-label="M"
     transform="matrix(1.0226426,0,0,0.97785874,0.44840764,0.41498542)"
     id="text33675-7-4"
     style="font-style:italic;font-weight:300;font-size:2.62675px;line-height:1.25;font-family:'Source Sans Pro';-inkscape-font-specification:'Source Sans Pro Light Italic';display:inline;fill:#808080;stroke-width:0.246258"><path
       d="m 13.745698,81.547577 v -1.712641 h 0.422906 l 0.275809,0.761757 q 0.02627,0.07618 0.04991,0.157605 0.02364,0.0788 0.04991,0.157605 h 0.01051 q 0.02627,-0.0788 0.04728,-0.157605 0.02364,-0.08143 0.04991,-0.157605 l 0.270556,-0.761757 h 0.42028 v 1.712641 h -0.351985 v -0.627793 q 0,-0.06304 0.0053,-0.139218 0.0053,-0.07618 0.01313,-0.152352 0.0079,-0.0788 0.01576,-0.152351 0.0079,-0.07618 0.01576,-0.139218 h -0.01051 l -0.139217,0.407146 -0.244288,0.654061 h -0.212767 l -0.244288,-0.654061 -0.136591,-0.407146 h -0.01051 q 0.0079,0.06304 0.01576,0.139218 0.0079,0.07355 0.01576,0.152351 0.0079,0.07618 0.01313,0.152352 0.0053,0.07618 0.0053,0.139218 v 0.627793 z"
       style="font-style:normal;font-weight:bold;-inkscape-font-specification:'Source Sans Pro Bold';fill:#808080"
       id="path43750" /></g><g
     aria-label="M"
     transform="scale(1.0226426,0.97785874)"
     id="text33675-7-15"
     style="font-style:italic;font-weight:300;font-size:2.62675px;line-height:1.25;font-family:'Source Sans Pro';-inkscape-font-specification:'Source Sans Pro Light Italic';display:inline;fill:#808080;stroke-width:0.246258"><path
       d="m 1.141906,101.6452 v -1.712638 h 0.4229067 l 0.2758088,0.761758 q 0.026268,0.0762 0.049908,0.1576 0.023641,0.0788 0.049908,0.15761 h 0.010507 q 0.026268,-0.0788 0.047281,-0.15761 0.023641,-0.0814 0.049908,-0.1576 L 2.31869,99.932562 H 2.73897 V 101.6452 H 2.3869855 v -0.62779 q 0,-0.063 0.00525,-0.13922 0.00525,-0.0762 0.013134,-0.15235 0.00788,-0.0788 0.01576,-0.15235 0.00788,-0.0762 0.015761,-0.13922 h -0.010507 l -0.1392177,0.40715 -0.2442878,0.65406 H 1.8301145 l -0.2442878,-0.65406 -0.136591,-0.40715 h -0.010507 q 0.00788,0.063 0.015761,0.13922 0.00788,0.0735 0.015761,0.15235 0.00788,0.0762 0.013134,0.15235 0.00525,0.0762 0.00525,0.13922 v 0.62779 z"
       style="font-style:normal;font-weight:bold;-inkscape-font-specification:'Source Sans Pro Bold';fill:#808080"
       id="path43747" /></g><path
     d="m 19.372751,125.91369 v 0 0 c -0.291608,0 -0.518414,0.2268 -0.518414,0.48601 0,0.29161 0.226806,0.48601 0.518414,0.48601 v 0 0 c 0.291608,0 0.486014,-0.2268 0.486014,-0.48601 0.0324,-0.25921 -0.194406,-0.48601 -0.486014,-0.48601 z"
     id="path13030"
     style="display:inline;fill:#4d4d4d;stroke-width:0.324009" /><path
     d="m 18.497927,125.03886 0.226806,-0.68042 -0.0324,-0.71282 -0.0648,-1.19883 -1.749649,4.66573 h 0.907226 l 0.486013,-1.42564 h 2.170861 l 0.486014,1.42564 h 0.907225 l -1.198833,-3.20769 c -0.0648,0.0324 -0.0972,0.0648 -0.162005,0.0972 -0.129603,0.0972 -0.259207,0.19441 -0.35641,0.29161 -0.0324,0.0324 -0.0648,0.0648 -0.0972,0.1296 l 0.226807,0.61562 z"
     id="path13032"
     style="display:inline;fill:#e8a7cf;fill-opacity:1;stroke:none;stroke-width:0.124;stroke-miterlimit:4;stroke-dasharray:none;stroke-opacity:1" /><path
     d="m 18.886738,121.99318 0.0648,1.65244 0.0648,1.06923 v 0.0972 h 0.680419 v -0.0324 -0.2916 c 0.0324,-0.12961 0.0972,-0.25921 0.194406,-0.35641 0.162004,-0.16201 0.388811,-0.29161 0.615617,-0.45362 0.324009,-0.2268 0.583216,-0.51841 0.583216,-1.03683 0,-0.90722 -0.810022,-1.39324 -1.652446,-1.39324 -0.518415,0 -1.06923,0.19441 -1.42564,0.45362 l 0.35641,0.58321 c 0.0972,-0.0648 0.226806,-0.1296 0.388811,-0.1944 0.0648,-0.0648 0.0972,-0.0648 0.129604,-0.0972 z m 0.939626,0 c 0.0324,0 0.0648,0.0324 0.0972,0.0324 0.226806,0.1296 0.388811,0.32401 0.388811,0.61561 0,0.0972 -0.0324,0.19441 -0.0648,0.29161 -0.0972,0.19441 -0.291608,0.35641 -0.486014,0.51842 z"
     id="path13034"
     style="display:inline;fill:#4d4d4d;stroke-width:0.324009" /></g><g
   inkscape:groupmode="layer"
   id="layer2"
   inkscape:label="Layer 4"
   style="display:inline"><path
     style="fill:none;stroke:#b3b3b3;stroke-width:0.246485px;stroke-linecap:butt;stroke-linejoin:miter;stroke-opacity:1"
     d="m 4.0188895,80.173168 c 0,0 -7.1645548,3.484528 0.081185,7.600479"
     id="path4675" /><path
     style="fill:none;stroke:#b3b3b3;stroke-width:0.246485px;stroke-linecap:butt;stroke-linejoin:miter;stroke-opacity:1"
     d="M 4.216778,87.78534 2.1668624,88.0192"
     id="path5075" /><path
     style="fill:none;stroke:#b3b3b3;stroke-width:0.246485px;stroke-linecap:butt;stroke-linejoin:miter;stroke-opacity:1"
     d="m 3.2577825,86.113233 0.8422924,1.660414"
     id="path5077" /><path
     style="clip-rule:evenodd;fill:none;fill-rule:evenodd;stroke:#b3b3b3;stroke-width:0.236875px;stroke-linecap:butt;stroke-linejoin:miter;stroke-miterlimit:1.5;stroke-opacity:1"
     d="m 3.7281469,106.40765 c 0,0 -6.6167559,3.48452 0.074978,7.60048"
     id="path4675-5" /><path
     style="clip-rule:evenodd;fill:none;fill-rule:evenodd;stroke:#b3b3b3;stroke-width:0.236875px;stroke-linecap:butt;stroke-linejoin:miter;stroke-miterlimit:1.5;stroke-opacity:1"
     d="M 3.9109049,114.01982 2.017725,114.25368"
     id="path5075-0" /><path
     style="clip-rule:evenodd;fill:none;fill-rule:evenodd;stroke:#b3b3b3;stroke-width:0.236875px;stroke-linecap:butt;stroke-linejoin:miter;stroke-miterlimit:1.5;stroke-opacity:1"
     d="m 3.0252338,112.34771 0.7778911,1.66042"
     id="path5077-2" /></g><g
   inkscape:groupmode="layer"
   id="layer1"
   inkscape:label="components"
   style="display:none"><circle
     style="fill:#00ff00;fill-opacity:1;stroke-width:0.0905463"
     id="macro_cvin"
     cx="6.86271"
     cy="38.040092"
     inkscape:label="macro"
     r="2.1081204" /><circle
     style="clip-rule:evenodd;display:inline;fill:#00ff00;fill-opacity:1;fill-rule:evenodd;stroke-width:0.0905463;stroke-linejoin:round;stroke-miterlimit:1.5"
     id="path2012-10"
     cx="6.5553107"
     cy="77.47216"
     inkscape:label="or1"
     r="2.1081204" /><circle
     style="clip-rule:evenodd;display:inline;fill:#00ff00;fill-opacity:1;fill-rule:evenodd;stroke-width:0.0905463;stroke-linejoin:round;stroke-miterlimit:1.5"
     id="path2012-9"
     cx="19.729801"
     cy="44.831676"
     inkscape:label="fade"
     r="2.1081204" /><circle
     style="clip-rule:evenodd;display:inline;fill:#ff0000;fill-opacity:1;fill-rule:evenodd;stroke-width:0.0905463;stroke-linejoin:round;stroke-miterlimit:1.5"
     id="path2012-9-5"
     cx="20.026134"
     cy="20.232031"
     inkscape:label="macro"
     r="2.1081204" /><circle
     style="clip-rule:evenodd;display:inline;fill:#00ff00;fill-opacity:1;fill-rule:evenodd;stroke-width:0.0905463;stroke-linejoin:round;stroke-miterlimit:1.5"
     id="path2012-0"
     cx="19.622208"
     cy="58.037048"
     inkscape:label="offset"
     r="2.1081204" /><circle
     style="clip-rule:evenodd;display:inline;fill:#00ff00;fill-opacity:1;fill-rule:evenodd;stroke-width:0.0905463;stroke-linejoin:round;stroke-miterlimit:1.5"
     id="path2012-08"
     cx="19.66437"
     cy="71.149567"
     inkscape:label="or2"
     r="2.1081204" /><circle
     style="clip-rule:evenodd;display:inline;fill:#00ff00;fill-opacity:1;fill-rule:evenodd;stroke-width:0.0905463;stroke-linejoin:round;stroke-miterlimit:1.5"
     id="path2012-6"
     cx="19.580046"
     cy="84.346428"
     inkscape:label="and2"
     r="2.1081204" /><circle
     style="clip-rule:evenodd;display:inline;fill:#0000ff;fill-opacity:1;fill-rule:evenodd;stroke-width:0.0905463;stroke-linejoin:round;stroke-miterlimit:1.5"
     id="path2012-23"
     cx="19.369234"
     cy="97.079445"
     inkscape:label="follow"
     r="2.1081204" /><circle
     style="clip-rule:evenodd;display:inline;fill:#0000ff;fill-opacity:1;fill-rule:evenodd;stroke-width:0.0905463;stroke-linejoin:round;stroke-miterlimit:1.5"
     id="path2012-23-7"
     cx="19.537884"
     cy="110.36063"
     inkscape:label="location"
     r="2.1081204" /><circle
     style="clip-rule:evenodd;display:inline;fill:#0000ff;fill-opacity:1;fill-rule:evenodd;stroke-width:0.0905463;stroke-linejoin:round;stroke-miterlimit:1.5"
     id="path2012-23-2"
     cx="32.996735"
     cy="116.50291"
     inkscape:label="cheese"
     r="2.1081204" /><circle
     style="clip-rule:evenodd;display:inline;fill:#0000ff;fill-opacity:1;fill-rule:evenodd;stroke-width:0.0905463;stroke-linejoin:round;stroke-miterlimit:1.5"
     id="path2012-23-5"
     cx="33.056362"
     cy="103.50433"
     inkscape:label="crease"
     r="2.1081204" /><circle
     style="clip-rule:evenodd;display:inline;fill:#0000ff;fill-opacity:1;fill-rule:evenodd;stroke-width:0.0905463;stroke-linejoin:round;stroke-miterlimit:1.5"
     id="path2012-23-9"
     cx="33.056362"
     cy="90.684578"
     inkscape:label="slope"
     r="2.1081204" /><circle
     style="clip-rule:evenodd;display:inline;fill:#0000ff;fill-opacity:1;fill-rule:evenodd;stroke-width:0.0905463;stroke-linejoin:round;stroke-miterlimit:1.5"
     id="path2012-23-1"
     cx="32.996735"
     cy="77.685959"
     inkscape:label="and"
     r="2.1081204" /><circle
     style="clip-rule:evenodd;display:inline;fill:#0000ff;fill-opacity:1;fill-rule:evenodd;stroke-width:0.0905463;stroke-linejoin:round;stroke-miterlimit:1.5"
     id="path2012-23-56"
     cx="33.024433"
     cy="64.771683"
     inkscape:label="or"
     r="2.1081204" /><circle
     style="clip-rule:evenodd;display:inline;fill:#0000ff;fill-opacity:1;fill-rule:evenodd;stroke-width:0.0905463;stroke-linejoin:round;stroke-miterlimit:1.5"
     id="path2012-23-23"
     cx="33.056362"
     cy="51.271351"
     inkscape:label="right"
     r="2.1081204" /><circle
     style="clip-rule:evenodd;display:inline;fill:#0000ff;fill-opacity:1;fill-rule:evenodd;stroke-width:0.0905463;stroke-linejoin:round;stroke-miterlimit:1.5"
     id="path2012-23-6"
     cx="32.877483"
     cy="38.213116"
     inkscape:label="left"
     r="2.1081204" /><circle
     style="clip-rule:evenodd;display:inline;fill:#00ff00;fill-opacity:1;fill-rule:evenodd;stroke-width:0.0905463;stroke-linejoin:round;stroke-miterlimit:1.5"
     id="path2012-2"
     cx="6.641758"
     cy="90.446075"
     inkscape:label="and1"
     r="2.1081204" /><circle
     style="clip-rule:evenodd;display:inline;fill:#00ff00;fill-opacity:1;fill-rule:evenodd;stroke-width:0.0905463;stroke-linejoin:round;stroke-miterlimit:1.5"
     id="path2012-59"
     cx="6.3044581"
     cy="103.8199"
     inkscape:label="slope"
     r="2.1081204" /><circle
     style="clip-rule:evenodd;display:inline;fill:#00ff00;fill-opacity:1;fill-rule:evenodd;stroke-width:0.0905463;stroke-linejoin:round;stroke-miterlimit:1.5"
     id="path2012-7"
     cx="6.2201314"
     cy="117.03955"
     inkscape:label="crease"
     r="2.1081204" /><circle
     style="clip-rule:evenodd;display:inline;fill:#00ff00;fill-opacity:1;fill-rule:evenodd;stroke-width:0.0905463;stroke-linejoin:round;stroke-miterlimit:1.5"
     id="path2012-1"
     cx="6.6881552"
     cy="51.383373"
     inkscape:label="left"
     r="2.1081204" /><circle
     style="clip-rule:evenodd;display:inline;fill:#00ff00;fill-opacity:1;fill-rule:evenodd;stroke-width:0.0905463;stroke-linejoin:round;stroke-miterlimit:1.5"
     id="path2012-5"
     cx="6.7230849"
     cy="64.571098"
     inkscape:label="right"
     r="2.1081204" /></g></svg>
